<svg xmlns="http://www.w3.org/2000/svg" xmlns:xlink="http://www.w3.org/1999/xlink" width="500" zoomAndPan="magnify" viewBox="0 0 375 374.999991" height="500" preserveAspectRatio="xMidYMid meet" version="1.0"><defs><g/><clipPath id="775d99fbec"><path d="M 139.25 88 L 230 88 L 230 95 L 139.25 95 Z M 139.25 88 " clip-rule="nonzero"/></clipPath><clipPath id="c3aee4e0d3"><path d="M 163 213 L 207 213 L 207 221.851562 L 163 221.851562 Z M 163 213 " clip-rule="nonzero"/></clipPath><clipPath id="bd688e3f99"><path d="M 181 213 L 188 213 L 188 221.851562 L 181 221.851562 Z M 181 213 " clip-rule="nonzero"/></clipPath><clipPath id="269decfac1"><path d="M 218 71.851562 L 229 71.851562 L 229 82 L 218 82 Z M 218 71.851562 " clip-rule="nonzero"/></clipPath><clipPath id="feea090844"><path d="M 139.25 91 L 230 91 L 230 147 L 139.25 147 Z M 139.25 91 " clip-rule="nonzero"/></clipPath></defs><path fill="#d08a2b" d="M 185.480469 109.410156 C 185.03125 109.410156 184.5625 109.449219 184.082031 109.527344 C 181.695312 109.90625 179.308594 111.199219 177.355469 113.164062 C 175.40625 115.128906 174.136719 117.519531 173.777344 119.902344 C 173.429688 122.226562 173.996094 124.257812 175.378906 125.617188 C 176.761719 126.980469 178.804688 127.519531 181.136719 127.148438 C 183.523438 126.765625 185.910156 125.476562 187.863281 123.511719 C 189.8125 121.546875 191.082031 119.152344 191.441406 116.773438 C 191.789062 114.449219 191.222656 112.417969 189.839844 111.058594 C 188.742188 109.976562 187.226562 109.410156 185.480469 109.410156 Z M 179.730469 128.242188 C 177.730469 128.242188 175.972656 127.578125 174.6875 126.3125 C 173.078125 124.726562 172.410156 122.398438 172.804688 119.757812 C 173.195312 117.171875 174.5625 114.585938 176.660156 112.476562 C 178.753906 110.367188 181.335938 108.972656 183.925781 108.558594 C 186.574219 108.136719 188.917969 108.777344 190.53125 110.363281 C 192.140625 111.949219 192.808594 114.277344 192.414062 116.917969 C 192.023438 119.503906 190.65625 122.089844 188.558594 124.199219 L 188.210938 123.855469 L 188.558594 124.199219 C 186.464844 126.308594 183.882812 127.699219 181.292969 128.117188 C 180.757812 128.199219 180.238281 128.242188 179.730469 128.242188 " fill-opacity="1" fill-rule="nonzero"/><path fill="#d08a2b" d="M 171.347656 130.164062 C 171.226562 130.164062 171.101562 130.121094 171.007812 130.027344 C 170.8125 129.835938 170.808594 129.527344 170.996094 129.335938 L 223.378906 75.847656 C 223.566406 75.652344 223.878906 75.648438 224.070312 75.835938 C 224.265625 76.027344 224.269531 76.335938 224.082031 76.527344 L 171.699219 130.015625 C 171.605469 130.117188 171.476562 130.164062 171.347656 130.164062 " fill-opacity="1" fill-rule="nonzero"/><g clip-path="url(#775d99fbec)"><path fill="#d08a2b" d="M 228.992188 91.714844 L 228.996094 91.714844 Z M 140.652344 91.5 C 143.929688 92.46875 161.261719 93.433594 184.574219 93.433594 C 207.886719 93.433594 225.21875 92.46875 228.496094 91.5 C 225.21875 90.527344 207.886719 89.5625 184.574219 89.5625 C 161.261719 89.5625 143.929688 90.527344 140.652344 91.5 Z M 184.574219 94.414062 C 172.59375 94.414062 161.324219 94.160156 152.851562 93.703125 C 139.253906 92.964844 139.253906 92.117188 139.253906 91.5 C 139.253906 90.878906 139.253906 90.03125 152.851562 89.296875 C 161.328125 88.839844 172.59375 88.585938 184.574219 88.585938 C 196.554688 88.585938 207.824219 88.839844 216.296875 89.296875 C 229.894531 90.03125 229.894531 90.878906 229.894531 91.5 C 229.894531 92.117188 229.894531 92.964844 216.296875 93.703125 C 207.824219 94.160156 196.558594 94.414062 184.574219 94.414062 " fill-opacity="1" fill-rule="nonzero"/></g><g clip-path="url(#c3aee4e0d3)"><path fill="#d08a2b" d="M 184.730469 214.316406 C 171.203125 214.316406 164.417969 216.40625 164.417969 217.578125 C 164.417969 218.753906 171.203125 220.84375 184.730469 220.84375 C 197.320312 220.84375 205.355469 218.910156 205.355469 217.578125 C 205.355469 216.25 197.320312 214.316406 184.730469 214.316406 Z M 184.730469 221.824219 C 174.472656 221.824219 163.433594 220.496094 163.433594 217.578125 C 163.433594 214.664062 174.472656 213.335938 184.730469 213.335938 C 193.414062 213.335938 206.335938 214.464844 206.335938 217.578125 C 206.335938 220.695312 193.414062 221.824219 184.730469 221.824219 " fill-opacity="1" fill-rule="nonzero"/></g><path fill="#d08a2b" d="M 184.753906 217.683594 L 164.234375 217.683594 C 163.960938 217.683594 163.742188 217.464844 163.742188 217.195312 C 163.742188 216.925781 163.960938 216.707031 164.234375 216.707031 L 184.753906 216.707031 C 185.027344 216.707031 185.246094 216.925781 185.246094 217.195312 C 185.246094 217.464844 185.027344 217.683594 184.753906 217.683594 " fill-opacity="1" fill-rule="nonzero"/><g clip-path="url(#bd688e3f99)"><path fill="#d08a2b" d="M 182.089844 221.652344 C 181.996094 221.652344 181.898438 221.621094 181.8125 221.5625 C 181.589844 221.410156 181.535156 221.105469 181.6875 220.882812 L 186.628906 213.761719 C 186.78125 213.539062 187.085938 213.484375 187.3125 213.636719 C 187.535156 213.792969 187.589844 214.097656 187.4375 214.316406 L 182.496094 221.441406 C 182.398438 221.578125 182.246094 221.652344 182.089844 221.652344 " fill-opacity="1" fill-rule="nonzero"/></g><path fill="#d08a2b" d="M 168.398438 107.398438 C 167.992188 107.398438 167.578125 107.394531 167.164062 107.378906 C 153.816406 106.964844 149.527344 104.246094 149.351562 104.128906 C 149.125 103.980469 149.0625 103.675781 149.210938 103.453125 C 149.363281 103.226562 149.667969 103.164062 149.894531 103.3125 C 149.933594 103.339844 154.195312 106 167.195312 106.402344 C 174.664062 106.632812 181.097656 104.648438 187.320312 102.722656 C 192.195312 101.21875 196.804688 99.796875 201.652344 99.488281 C 212.222656 98.824219 218.003906 102.609375 219.519531 103.789062 C 219.734375 103.953125 219.773438 104.261719 219.605469 104.476562 C 219.441406 104.6875 219.132812 104.726562 218.917969 104.558594 C 217.886719 103.761719 212.207031 99.800781 201.714844 100.464844 C 196.984375 100.765625 192.429688 102.171875 187.613281 103.660156 C 181.652344 105.5 175.5 107.398438 168.398438 107.398438 " fill-opacity="1" fill-rule="nonzero"/><path fill="#d08a2b" d="M 184.832031 217.671875 C 184.558594 217.671875 184.339844 217.453125 184.339844 217.179688 L 184.339844 126.667969 C 184.339844 126.394531 184.558594 126.179688 184.832031 126.179688 C 185.101562 126.179688 185.320312 126.394531 185.320312 126.667969 L 185.324219 217.179688 C 185.324219 217.453125 185.101562 217.671875 184.832031 217.671875 " fill-opacity="1" fill-rule="nonzero"/><path fill="#d08a2b" d="M 166.671875 124.394531 C 166.554688 124.394531 166.4375 124.355469 166.339844 124.269531 C 166.140625 124.085938 166.125 123.777344 166.308594 123.578125 L 184.285156 103.890625 C 184.46875 103.6875 184.777344 103.675781 184.980469 103.855469 C 185.179688 104.039062 185.195312 104.347656 185.011719 104.546875 L 167.035156 124.234375 C 166.9375 124.34375 166.804688 124.394531 166.671875 124.394531 " fill-opacity="1" fill-rule="nonzero"/><path fill="#d08a2b" d="M 176.460938 113.675781 C 176.332031 113.675781 176.203125 113.628906 176.105469 113.527344 L 170.101562 107.320312 C 169.914062 107.125 169.921875 106.816406 170.117188 106.628906 C 170.3125 106.441406 170.621094 106.449219 170.808594 106.644531 L 176.816406 112.847656 C 177.003906 113.042969 176.996094 113.355469 176.800781 113.542969 C 176.707031 113.632812 176.582031 113.675781 176.460938 113.675781 " fill-opacity="1" fill-rule="nonzero"/><path fill="#d08a2b" d="M 166.453125 123.691406 C 166.453125 123.691406 166.453125 123.691406 166.449219 123.691406 C 166.179688 123.6875 165.960938 123.46875 165.960938 123.195312 L 166.054688 107.015625 C 166.054688 106.746094 166.273438 106.53125 166.542969 106.53125 C 166.546875 106.53125 166.546875 106.53125 166.546875 106.53125 C 166.816406 106.53125 167.035156 106.75 167.035156 107.019531 L 166.945312 123.203125 C 166.941406 123.472656 166.722656 123.691406 166.453125 123.691406 " fill-opacity="1" fill-rule="nonzero"/><path fill="#d08a2b" d="M 176.050781 113.542969 L 157.574219 113.542969 C 157.300781 113.542969 157.082031 113.324219 157.082031 113.050781 C 157.082031 112.78125 157.300781 112.5625 157.574219 112.5625 L 176.050781 112.5625 C 176.324219 112.5625 176.542969 112.78125 176.542969 113.050781 C 176.542969 113.324219 176.324219 113.542969 176.050781 113.542969 " fill-opacity="1" fill-rule="nonzero"/><path fill="#d08a2b" d="M 177.734375 137.632812 C 177.613281 137.632812 177.492188 137.585938 177.394531 137.496094 C 177.199219 137.3125 177.191406 137 177.378906 136.804688 L 184.476562 129.386719 C 184.570312 129.289062 184.703125 129.25 184.835938 129.234375 C 184.972656 129.234375 185.101562 129.292969 185.191406 129.394531 L 191.925781 136.75 C 192.109375 136.949219 192.09375 137.257812 191.894531 137.441406 C 191.691406 137.625 191.382812 137.609375 191.199219 137.410156 L 184.820312 130.441406 L 178.089844 137.480469 C 177.992188 137.582031 177.863281 137.632812 177.734375 137.632812 " fill-opacity="1" fill-rule="nonzero"/><path fill="#d08a2b" d="M 212.304688 113 L 191.765625 113 C 191.496094 113 191.273438 112.78125 191.273438 112.507812 C 191.273438 112.238281 191.496094 112.019531 191.765625 112.019531 L 212.304688 112.019531 C 212.578125 112.019531 212.796875 112.238281 212.796875 112.507812 C 212.796875 112.78125 212.578125 113 212.304688 113 " fill-opacity="1" fill-rule="nonzero"/><path fill="#d08a2b" d="M 218.765625 104.84375 L 184.375 104.84375 C 184.105469 104.84375 183.882812 104.625 183.882812 104.355469 C 183.882812 104.085938 184.105469 103.867188 184.375 103.867188 L 218.765625 103.867188 C 219.035156 103.867188 219.257812 104.085938 219.257812 104.355469 C 219.257812 104.625 219.035156 104.84375 218.765625 104.84375 " fill-opacity="1" fill-rule="nonzero"/><path fill="#d08a2b" d="M 193.28125 135.757812 C 193.152344 135.757812 193.019531 135.703125 192.921875 135.601562 L 184.617188 126.742188 C 184.433594 126.542969 184.441406 126.234375 184.640625 126.050781 C 184.839844 125.867188 185.148438 125.875 185.335938 126.074219 L 193.640625 134.933594 C 193.828125 135.128906 193.816406 135.441406 193.617188 135.625 C 193.523438 135.714844 193.402344 135.757812 193.28125 135.757812 " fill-opacity="1" fill-rule="nonzero"/><path fill="#d08a2b" d="M 188.878906 130.800781 C 188.765625 130.800781 188.65625 130.765625 188.5625 130.6875 C 188.355469 130.511719 188.328125 130.203125 188.503906 129.996094 L 203.359375 112.367188 C 203.53125 112.160156 203.84375 112.132812 204.050781 112.304688 C 204.257812 112.480469 204.285156 112.789062 204.109375 112.996094 L 189.253906 130.625 C 189.160156 130.742188 189.019531 130.800781 188.878906 130.800781 " fill-opacity="1" fill-rule="nonzero"/><g clip-path="url(#269decfac1)"><path fill="#d08a2b" d="M 223.484375 72.84375 C 221.398438 72.84375 219.703125 74.535156 219.703125 76.613281 C 219.703125 78.691406 221.398438 80.382812 223.484375 80.382812 C 225.574219 80.382812 227.273438 78.691406 227.273438 76.613281 C 227.273438 74.535156 225.574219 72.84375 223.484375 72.84375 Z M 223.484375 81.359375 C 220.859375 81.359375 218.71875 79.230469 218.71875 76.613281 C 218.71875 73.996094 220.859375 71.863281 223.484375 71.863281 C 226.117188 71.863281 228.253906 73.996094 228.253906 76.613281 C 228.253906 79.230469 226.117188 81.359375 223.484375 81.359375 " fill-opacity="1" fill-rule="nonzero"/></g><g clip-path="url(#feea090844)"><path fill="#d08a2b" d="M 184.648438 146.308594 C 184.503906 146.308594 184.363281 146.246094 184.269531 146.132812 C 176.832031 137.164062 169.320312 128.082031 161.804688 119 C 154.335938 109.972656 146.867188 100.945312 139.476562 92.035156 C 139.304688 91.824219 139.332031 91.515625 139.542969 91.34375 C 139.75 91.171875 140.058594 91.203125 140.234375 91.410156 C 147.625 100.324219 155.09375 109.351562 162.5625 118.378906 C 169.949219 127.304688 177.335938 136.234375 184.648438 145.050781 C 191.953125 136.242188 199.445312 127.148438 206.695312 118.347656 C 214.050781 109.417969 221.660156 100.183594 229.0625 91.257812 C 229.238281 91.046875 229.542969 91.019531 229.753906 91.191406 C 229.964844 91.363281 229.992188 91.671875 229.820312 91.878906 C 222.417969 100.804688 214.8125 110.039062 207.457031 118.96875 C 200.078125 127.921875 192.453125 137.179688 185.027344 146.132812 C 184.933594 146.246094 184.796875 146.308594 184.648438 146.308594 " fill-opacity="1" fill-rule="nonzero"/></g><path fill="#d08a2b" d="M 184.648438 109.402344 C 184.378906 109.402344 184.15625 109.183594 184.15625 108.914062 L 184.15625 89.34375 C 184.15625 89.074219 184.378906 88.855469 184.648438 88.855469 C 184.917969 88.855469 185.140625 89.074219 185.140625 89.34375 L 185.140625 108.914062 C 185.140625 109.183594 184.917969 109.402344 184.648438 109.402344 " fill-opacity="1" fill-rule="nonzero"/><g fill="#000000" fill-opacity="1"><g transform="translate(98.40897, 296.47009)"><g><path d="M 19.40625 11.453125 C 19.101562 11.390625 18.859375 11.265625 18.671875 11.078125 C 18.492188 10.890625 18.34375 10.675781 18.21875 10.4375 C 18.09375 10.070312 18 9.707031 17.9375 9.34375 C 17.882812 8.976562 17.796875 8.609375 17.671875 8.234375 C 17.546875 7.328125 17.46875 6.367188 17.4375 5.359375 C 17.40625 4.347656 17.390625 3.171875 17.390625 1.828125 C 17.390625 0.117188 17.507812 -1.738281 17.75 -3.75 C 18 -5.769531 18.28125 -7.816406 18.59375 -9.890625 C 19.195312 -13.609375 19.863281 -17.300781 20.59375 -20.96875 C 21.332031 -24.632812 22.097656 -28.296875 22.890625 -31.953125 C 23.316406 -33.910156 23.726562 -35.863281 24.125 -37.8125 C 24.519531 -39.769531 24.84375 -41.753906 25.09375 -43.765625 C 25.269531 -44.679688 25.421875 -45.613281 25.546875 -46.5625 C 25.671875 -47.507812 25.765625 -48.46875 25.828125 -49.4375 C 25.941406 -50.601562 25.910156 -51.675781 25.734375 -52.65625 C 25.546875 -53.507812 25.359375 -53.960938 25.171875 -54.015625 C 24.992188 -54.078125 24.539062 -53.957031 23.8125 -53.65625 C 23.382812 -53.46875 22.984375 -53.265625 22.609375 -53.046875 C 22.242188 -52.835938 21.878906 -52.613281 21.515625 -52.375 C 20.234375 -51.519531 19.007812 -50.570312 17.84375 -49.53125 C 16.6875 -48.5 15.59375 -47.429688 14.5625 -46.328125 C 11.570312 -43.210938 9.035156 -39.914062 6.953125 -36.4375 C 6.035156 -34.851562 5.195312 -33.222656 4.4375 -31.546875 C 3.675781 -29.867188 3.050781 -28.144531 2.5625 -26.375 C 2.257812 -25.03125 2.015625 -23.703125 1.828125 -22.390625 C 1.648438 -21.078125 1.585938 -19.75 1.640625 -18.40625 C 1.703125 -17.613281 1.828125 -16.863281 2.015625 -16.15625 C 2.203125 -15.457031 2.507812 -14.769531 2.9375 -14.09375 C 3.414062 -13.425781 3.851562 -12.984375 4.25 -12.765625 C 4.65625 -12.554688 5.34375 -12.601562 6.3125 -12.90625 C 7.59375 -13.332031 8.816406 -14.035156 9.984375 -15.015625 C 10.222656 -15.253906 10.460938 -15.507812 10.703125 -15.78125 C 10.953125 -16.0625 11.203125 -16.328125 11.453125 -16.578125 C 11.566406 -16.640625 11.65625 -16.695312 11.71875 -16.75 C 11.78125 -16.8125 11.875 -16.8125 12 -16.75 C 12.175781 -16.632812 12.175781 -16.394531 12 -16.03125 L 11.71875 -15.75 C 10.625 -14.40625 9.3125 -13.367188 7.78125 -12.640625 C 6.800781 -12.148438 5.671875 -12.039062 4.390625 -12.3125 C 3.109375 -12.59375 2.101562 -13.375 1.375 -14.65625 C 0.945312 -15.445312 0.640625 -16.253906 0.453125 -17.078125 C 0.273438 -17.898438 0.125 -18.769531 0 -19.6875 C -0.0625 -20.539062 -0.046875 -21.378906 0.046875 -22.203125 C 0.140625 -23.023438 0.242188 -23.832031 0.359375 -24.625 C 0.785156 -27.375 1.535156 -30 2.609375 -32.5 C 3.679688 -35.007812 4.976562 -37.390625 6.5 -39.640625 C 9.800781 -44.585938 13.769531 -48.925781 18.40625 -52.65625 C 18.832031 -52.957031 19.242188 -53.257812 19.640625 -53.5625 C 20.035156 -53.863281 20.445312 -54.140625 20.875 -54.390625 C 21.425781 -54.691406 22.097656 -54.992188 22.890625 -55.296875 C 23.554688 -55.484375 24.394531 -55.394531 25.40625 -55.03125 C 26.414062 -54.664062 27.101562 -54.207031 27.46875 -53.65625 C 27.769531 -53.164062 27.984375 -52.585938 28.109375 -51.921875 C 28.296875 -50.878906 28.359375 -49.960938 28.296875 -49.171875 C 28.234375 -47.640625 28.078125 -46.109375 27.828125 -44.578125 C 27.585938 -43.054688 27.316406 -41.535156 27.015625 -40.015625 C 26.585938 -37.566406 26.113281 -35.125 25.59375 -32.6875 C 25.070312 -30.25 24.535156 -27.804688 23.984375 -25.359375 C 23.492188 -22.921875 22.972656 -20.445312 22.421875 -17.9375 C 21.878906 -15.4375 21.394531 -12.9375 20.96875 -10.4375 C 20.664062 -8.363281 20.375 -6.285156 20.09375 -4.203125 C 19.820312 -2.128906 19.65625 -0.0234375 19.59375 2.109375 C 19.53125 3.023438 19.515625 3.9375 19.546875 4.84375 C 19.578125 5.757812 19.625 6.675781 19.6875 7.59375 C 19.6875 8.507812 19.867188 9.488281 20.234375 10.53125 C 20.359375 10.957031 20.570312 11.046875 20.875 10.796875 C 21.125 10.679688 21.351562 10.546875 21.5625 10.390625 C 21.78125 10.234375 21.976562 10.097656 22.15625 9.984375 C 22.832031 9.492188 23.441406 8.925781 23.984375 8.28125 C 24.535156 7.644531 25.023438 7.019531 25.453125 6.40625 C 25.941406 5.738281 26.414062 5.066406 26.875 4.390625 C 27.332031 3.722656 27.773438 3.050781 28.203125 2.375 C 29.910156 -0.550781 31.570312 -3.523438 33.1875 -6.546875 C 34.8125 -9.566406 36.289062 -12.632812 37.625 -15.75 C 38 -16.539062 38.1875 -16.984375 38.1875 -17.078125 C 38.1875 -17.171875 37.757812 -17.398438 36.90625 -17.765625 C 35.375 -18.367188 34.273438 -19.4375 33.609375 -20.96875 C 32.929688 -22.4375 32.53125 -24.023438 32.40625 -25.734375 C 32.351562 -27.617188 32.445312 -29.492188 32.6875 -31.359375 C 32.925781 -33.222656 33.257812 -35.097656 33.6875 -36.984375 C 34.300781 -39.492188 35.097656 -41.953125 36.078125 -44.359375 C 37.054688 -46.773438 38.242188 -49.082031 39.640625 -51.28125 C 40.316406 -52.3125 41.019531 -53.300781 41.75 -54.25 C 42.476562 -55.195312 43.273438 -56.097656 44.140625 -56.953125 C 44.566406 -57.316406 44.976562 -57.664062 45.375 -58 C 45.769531 -58.34375 46.179688 -58.632812 46.609375 -58.875 L 47.609375 -59.421875 C 48.460938 -59.847656 49.285156 -59.96875 50.078125 -59.78125 C 50.878906 -59.601562 51.644531 -59.238281 52.375 -58.6875 C 52.5625 -58.570312 52.710938 -58.40625 52.828125 -58.1875 C 52.953125 -57.976562 53.046875 -57.75 53.109375 -57.5 C 53.234375 -57.070312 53.304688 -56.613281 53.328125 -56.125 C 53.359375 -55.632812 53.347656 -55.144531 53.296875 -54.65625 C 53.171875 -53.6875 53 -52.695312 52.78125 -51.6875 C 52.570312 -50.675781 52.3125 -49.65625 52 -48.625 C 51.394531 -46.539062 50.738281 -44.492188 50.03125 -42.484375 C 49.332031 -40.472656 48.585938 -38.457031 47.796875 -36.4375 C 46.753906 -33.632812 45.65625 -30.84375 44.5 -28.0625 C 43.34375 -25.28125 42.148438 -22.550781 40.921875 -19.875 C 40.867188 -19.6875 40.8125 -19.515625 40.75 -19.359375 C 40.6875 -19.210938 40.625 -19.046875 40.5625 -18.859375 C 40.5 -18.679688 40.40625 -18.5 40.28125 -18.3125 C 40.164062 -18.125 40.195312 -17.941406 40.375 -17.765625 C 40.5 -17.640625 40.664062 -17.59375 40.875 -17.625 C 41.09375 -17.65625 41.320312 -17.703125 41.5625 -17.765625 C 42.414062 -17.890625 43.269531 -18.054688 44.125 -18.265625 C 44.988281 -18.484375 45.816406 -18.742188 46.609375 -19.046875 C 48.191406 -19.648438 49.726562 -20.300781 51.21875 -21 C 52.71875 -21.707031 54.171875 -22.488281 55.578125 -23.34375 C 56.492188 -23.957031 57.394531 -24.613281 58.28125 -25.3125 C 59.164062 -26.019531 60.003906 -26.738281 60.796875 -27.46875 L 64.375 -30.578125 C 64.613281 -30.828125 64.851562 -30.921875 65.09375 -30.859375 C 65.769531 -30.609375 65.863281 -30.300781 65.375 -29.9375 C 64.03125 -28.59375 62.6875 -27.28125 61.34375 -26 C 60 -24.71875 58.535156 -23.5625 56.953125 -22.53125 C 55.242188 -21.425781 53.503906 -20.445312 51.734375 -19.59375 C 49.960938 -18.738281 48.097656 -18.003906 46.140625 -17.390625 C 44.316406 -16.847656 42.519531 -16.609375 40.75 -16.671875 C 40.132812 -16.722656 39.796875 -16.71875 39.734375 -16.65625 C 39.671875 -16.601562 39.488281 -16.300781 39.1875 -15.75 C 38.570312 -14.34375 37.929688 -12.953125 37.265625 -11.578125 C 36.597656 -10.203125 35.894531 -8.816406 35.15625 -7.421875 C 34.0625 -5.335938 32.945312 -3.242188 31.8125 -1.140625 C 30.6875 0.960938 29.484375 3.019531 28.203125 5.03125 C 27.585938 6.007812 26.914062 6.957031 26.1875 7.875 C 25.457031 8.789062 24.664062 9.644531 23.8125 10.4375 C 23.75 10.5 23.6875 10.5625 23.625 10.625 C 23.5625 10.6875 23.46875 10.742188 23.34375 10.796875 C 22.488281 11.410156 21.863281 11.734375 21.46875 11.765625 C 21.070312 11.796875 20.382812 11.691406 19.40625 11.453125 Z M 38.09375 -17.859375 C 38.394531 -17.859375 38.609375 -17.945312 38.734375 -18.125 C 38.796875 -18.3125 38.851562 -18.476562 38.90625 -18.625 C 38.96875 -18.78125 39.03125 -18.921875 39.09375 -19.046875 L 41.109375 -23.53125 C 42.210938 -26.09375 43.28125 -28.6875 44.3125 -31.3125 C 45.351562 -33.9375 46.363281 -36.5625 47.34375 -39.1875 C 48.007812 -41.144531 48.675781 -43.128906 49.34375 -45.140625 C 50.019531 -47.148438 50.570312 -49.195312 51 -51.28125 C 51.1875 -52.070312 51.351562 -52.832031 51.5 -53.5625 C 51.65625 -54.289062 51.734375 -55.054688 51.734375 -55.859375 C 51.734375 -56.285156 51.71875 -56.679688 51.6875 -57.046875 C 51.65625 -57.410156 51.578125 -57.804688 51.453125 -58.234375 C 51.210938 -58.660156 50.878906 -58.84375 50.453125 -58.78125 C 49.773438 -58.71875 49.101562 -58.441406 48.4375 -57.953125 C 48.070312 -57.773438 47.71875 -57.5625 47.375 -57.3125 C 47.039062 -57.070312 46.722656 -56.800781 46.421875 -56.5 C 45.566406 -55.695312 44.769531 -54.851562 44.03125 -53.96875 C 43.300781 -53.09375 42.601562 -52.164062 41.9375 -51.1875 C 39.0625 -46.851562 37.046875 -42.210938 35.890625 -37.265625 C 35.460938 -35.554688 35.109375 -33.847656 34.828125 -32.140625 C 34.554688 -30.429688 34.394531 -28.597656 34.34375 -26.640625 C 34.34375 -26.398438 34.34375 -26.097656 34.34375 -25.734375 C 34.34375 -25.367188 34.367188 -24.96875 34.421875 -24.53125 C 34.609375 -22.945312 35.007812 -21.515625 35.625 -20.234375 C 35.863281 -19.867188 36.117188 -19.515625 36.390625 -19.171875 C 36.671875 -18.835938 36.960938 -18.550781 37.265625 -18.3125 C 37.628906 -18.070312 37.90625 -17.921875 38.09375 -17.859375 Z M 38.09375 -17.859375 "/></g></g></g><g fill="#000000" fill-opacity="1"><g transform="translate(161.31233, 296.47009)"><g><path d="M 5.765625 -38 C 5.273438 -38.175781 5.03125 -38.484375 5.03125 -38.921875 C 5.21875 -39.523438 5.460938 -40.007812 5.765625 -40.375 C 5.890625 -40.625 6.101562 -40.6875 6.40625 -40.5625 C 6.46875 -40.5625 6.5625 -40.5 6.6875 -40.375 C 6.625 -40.3125 6.59375 -40.222656 6.59375 -40.109375 C 6.289062 -39.796875 6.226562 -39.488281 6.40625 -39.1875 C 6.53125 -39.007812 6.53125 -38.828125 6.40625 -38.640625 C 6.34375 -38.210938 6.128906 -38 5.765625 -38 Z M 4.9375 -22.34375 C 4.082031 -22.039062 3.140625 -22.128906 2.109375 -22.609375 C 1.554688 -22.921875 1.21875 -23.410156 1.09375 -24.078125 L 0.921875 -25.359375 C 1.097656 -27.859375 1.738281 -30.207031 2.84375 -32.40625 C 3.082031 -32.78125 3.296875 -33.054688 3.484375 -33.234375 C 3.597656 -33.359375 3.757812 -33.390625 3.96875 -33.328125 C 4.1875 -33.265625 4.328125 -33.171875 4.390625 -33.046875 C 4.390625 -32.992188 4.40625 -32.9375 4.4375 -32.875 C 4.46875 -32.8125 4.453125 -32.75 4.390625 -32.6875 C 3.660156 -31.53125 3.171875 -30.320312 2.921875 -29.0625 C 2.679688 -27.8125 2.5 -26.546875 2.375 -25.265625 C 2.257812 -24.535156 2.289062 -23.894531 2.46875 -23.34375 C 2.65625 -23.039062 2.898438 -22.890625 3.203125 -22.890625 C 3.503906 -22.890625 3.789062 -22.945312 4.0625 -23.0625 C 4.34375 -23.1875 4.609375 -23.28125 4.859375 -23.34375 C 5.398438 -23.65625 5.945312 -23.976562 6.5 -24.3125 C 7.050781 -24.644531 7.601562 -24.992188 8.15625 -25.359375 C 9.1875 -26.148438 10.21875 -26.957031 11.25 -27.78125 C 12.289062 -28.613281 13.332031 -29.425781 14.375 -30.21875 C 14.5625 -30.394531 14.710938 -30.515625 14.828125 -30.578125 C 15.191406 -30.941406 15.617188 -30.910156 16.109375 -30.484375 C 16.171875 -30.484375 16.21875 -30.453125 16.25 -30.390625 C 16.28125 -30.335938 16.265625 -30.28125 16.203125 -30.21875 L 15.84375 -29.84375 C 14.5 -28.6875 13.125 -27.570312 11.71875 -26.5 C 10.3125 -25.4375 8.847656 -24.445312 7.328125 -23.53125 C 6.960938 -23.289062 6.578125 -23.0625 6.171875 -22.84375 C 5.773438 -22.632812 5.363281 -22.46875 4.9375 -22.34375 Z M 4.9375 -22.34375 "/></g></g></g><g fill="#000000" fill-opacity="1"><g transform="translate(174.772007, 296.47009)"><g><path d="M 1.46875 -22.703125 C 0.851562 -22.890625 0.578125 -23.257812 0.640625 -23.8125 C 0.640625 -24.175781 0.65625 -24.523438 0.6875 -24.859375 C 0.71875 -25.191406 0.765625 -25.539062 0.828125 -25.90625 C 1.191406 -27.988281 1.675781 -29.988281 2.28125 -31.90625 C 2.894531 -33.832031 3.691406 -35.738281 4.671875 -37.625 L 5.125 -38.453125 C 5.3125 -38.640625 5.492188 -38.703125 5.671875 -38.640625 C 5.859375 -38.453125 5.921875 -38.269531 5.859375 -38.09375 C 5.617188 -37.601562 5.390625 -37.097656 5.171875 -36.578125 C 4.960938 -36.054688 4.734375 -35.523438 4.484375 -34.984375 C 3.878906 -33.453125 3.375 -31.90625 2.96875 -30.34375 C 2.570312 -28.789062 2.222656 -27.222656 1.921875 -25.640625 C 1.921875 -25.515625 1.921875 -25.390625 1.921875 -25.265625 C 1.921875 -25.148438 1.953125 -24.96875 2.015625 -24.71875 C 2.203125 -25.03125 2.351562 -25.273438 2.46875 -25.453125 C 2.59375 -25.640625 2.71875 -25.820312 2.84375 -26 L 5.3125 -30.40625 C 5.675781 -31.070312 6.132812 -31.710938 6.6875 -32.328125 C 6.988281 -32.628906 7.320312 -32.6875 7.6875 -32.5 C 8.300781 -32.320312 8.671875 -31.894531 8.796875 -31.21875 C 8.910156 -30.851562 9 -30.488281 9.0625 -30.125 C 9.125 -29.757812 9.1875 -29.394531 9.25 -29.03125 C 9.3125 -28.289062 9.554688 -27.585938 9.984375 -26.921875 C 10.222656 -26.429688 10.617188 -26.1875 11.171875 -26.1875 C 13.242188 -26.375 15.046875 -26.984375 16.578125 -28.015625 L 18.5 -29.390625 C 18.738281 -29.578125 18.945312 -29.757812 19.125 -29.9375 C 19.3125 -30.125 19.53125 -30.28125 19.78125 -30.40625 C 20.207031 -30.769531 20.664062 -30.738281 21.15625 -30.3125 C 21.21875 -30.125 21.09375 -29.96875 20.78125 -29.84375 C 20.539062 -29.601562 20.265625 -29.34375 19.953125 -29.0625 C 19.648438 -28.789062 19.347656 -28.535156 19.046875 -28.296875 C 17.273438 -26.703125 15.140625 -25.753906 12.640625 -25.453125 C 12.023438 -25.390625 11.472656 -25.445312 10.984375 -25.625 C 10.492188 -25.8125 10.003906 -26.03125 9.515625 -26.28125 C 8.910156 -26.707031 8.515625 -27.285156 8.328125 -28.015625 C 8.148438 -28.441406 8.03125 -28.867188 7.96875 -29.296875 C 7.90625 -29.722656 7.84375 -30.148438 7.78125 -30.578125 C 7.78125 -30.703125 7.765625 -30.8125 7.734375 -30.90625 C 7.703125 -31 7.6875 -31.070312 7.6875 -31.125 C 7.6875 -31.25 7.640625 -31.328125 7.546875 -31.359375 C 7.460938 -31.390625 7.390625 -31.375 7.328125 -31.3125 C 7.140625 -31.132812 6.96875 -30.953125 6.8125 -30.765625 C 6.664062 -30.578125 6.53125 -30.394531 6.40625 -30.21875 C 5.914062 -29.476562 5.472656 -28.726562 5.078125 -27.96875 C 4.679688 -27.207031 4.238281 -26.460938 3.75 -25.734375 C 3.507812 -25.304688 3.296875 -24.90625 3.109375 -24.53125 C 2.929688 -24.164062 2.71875 -23.800781 2.46875 -23.4375 L 2.015625 -22.890625 C 1.828125 -22.703125 1.644531 -22.640625 1.46875 -22.703125 Z M 1.46875 -22.703125 "/></g></g></g><g fill="#000000" fill-opacity="1"><g transform="translate(193.176045, 296.47009)"><g><path d="M -2.375 5.859375 C -2.625 5.734375 -2.78125 5.671875 -2.84375 5.671875 C -3.144531 5.671875 -3.367188 5.578125 -3.515625 5.390625 C -3.671875 5.210938 -3.8125 5.003906 -3.9375 4.765625 C -4 4.398438 -4.0625 4.03125 -4.125 3.65625 C -4.1875 3.289062 -4.242188 2.925781 -4.296875 2.5625 C -4.359375 1.34375 -4.34375 0.171875 -4.25 -0.953125 C -4.164062 -2.085938 -4.03125 -3.234375 -3.84375 -4.390625 C -3.539062 -6.523438 -3.160156 -8.660156 -2.703125 -10.796875 C -2.242188 -12.941406 -1.769531 -15.050781 -1.28125 -17.125 L 2.5625 -32.78125 C 3.050781 -34.789062 3.613281 -36.785156 4.25 -38.765625 C 4.894531 -40.753906 5.550781 -42.726562 6.21875 -44.6875 C 6.53125 -45.539062 6.65625 -46.023438 6.59375 -46.140625 C 6.53125 -46.265625 6.007812 -46.265625 5.03125 -46.140625 C 3.320312 -45.898438 1.597656 -45.6875 -0.140625 -45.5 C -1.878906 -45.320312 -3.632812 -45.171875 -5.40625 -45.046875 C -6.195312 -44.984375 -6.988281 -44.96875 -7.78125 -45 C -8.570312 -45.03125 -9.363281 -45.140625 -10.15625 -45.328125 C -11.257812 -45.503906 -12.300781 -45.898438 -13.28125 -46.515625 C -13.519531 -46.691406 -13.757812 -46.898438 -14 -47.140625 C -14.25 -47.390625 -14.4375 -47.640625 -14.5625 -47.890625 C -14.738281 -48.378906 -14.582031 -48.773438 -14.09375 -49.078125 C -13.914062 -49.078125 -13.765625 -49.046875 -13.640625 -48.984375 C -13.578125 -48.921875 -13.5625 -48.859375 -13.59375 -48.796875 C -13.625 -48.742188 -13.640625 -48.6875 -13.640625 -48.625 C -13.828125 -48.4375 -13.953125 -48.253906 -14.015625 -48.078125 C -14.128906 -47.890625 -14.066406 -47.671875 -13.828125 -47.421875 C -13.703125 -47.367188 -13.578125 -47.3125 -13.453125 -47.25 C -13.335938 -47.1875 -13.25 -47.125 -13.1875 -47.0625 C -12.820312 -46.875 -12.453125 -46.734375 -12.078125 -46.640625 C -11.710938 -46.554688 -11.347656 -46.453125 -10.984375 -46.328125 C -10.378906 -46.265625 -9.769531 -46.203125 -9.15625 -46.140625 C -8.539062 -46.085938 -7.929688 -46.085938 -7.328125 -46.140625 C -5.304688 -46.265625 -3.289062 -46.476562 -1.28125 -46.78125 C 0.726562 -47.09375 2.710938 -47.398438 4.671875 -47.703125 L 6.78125 -47.984375 C 7.082031 -48.046875 7.296875 -48.226562 7.421875 -48.53125 L 7.6875 -49.53125 C 8.175781 -50.875 8.632812 -52.234375 9.0625 -53.609375 C 9.488281 -54.984375 9.914062 -56.34375 10.34375 -57.6875 C 10.40625 -57.863281 10.46875 -58.03125 10.53125 -58.1875 C 10.59375 -58.34375 10.65625 -58.476562 10.71875 -58.59375 C 10.832031 -58.71875 10.953125 -58.78125 11.078125 -58.78125 C 11.265625 -58.78125 11.390625 -58.691406 11.453125 -58.515625 C 11.503906 -58.328125 11.515625 -58.140625 11.484375 -57.953125 C 11.460938 -57.773438 11.421875 -57.59375 11.359375 -57.40625 L 10.53125 -54.296875 C 10.34375 -53.503906 10.140625 -52.738281 9.921875 -52 C 9.710938 -51.269531 9.519531 -50.507812 9.34375 -49.71875 C 9.28125 -49.53125 9.21875 -49.34375 9.15625 -49.15625 C 9.09375 -48.976562 9.09375 -48.800781 9.15625 -48.625 C 9.28125 -48.5625 9.414062 -48.53125 9.5625 -48.53125 C 9.71875 -48.53125 9.859375 -48.53125 9.984375 -48.53125 L 16.671875 -49.625 C 17.890625 -49.75 19.09375 -49.882812 20.28125 -50.03125 C 21.46875 -50.1875 22.644531 -50.328125 23.8125 -50.453125 C 26.0625 -50.753906 28.300781 -51.023438 30.53125 -51.265625 C 32.757812 -51.515625 34.972656 -51.820312 37.171875 -52.1875 C 37.847656 -52.3125 38.550781 -52.40625 39.28125 -52.46875 C 40.007812 -52.53125 40.710938 -52.59375 41.390625 -52.65625 C 41.992188 -52.707031 42.570312 -52.6875 43.125 -52.59375 C 43.675781 -52.507812 44.253906 -52.40625 44.859375 -52.28125 C 45.472656 -52.09375 45.8125 -51.726562 45.875 -51.1875 L 46.140625 -50 C 46.140625 -49.382812 46.019531 -48.925781 45.78125 -48.625 C 45.65625 -48.5 45.503906 -48.4375 45.328125 -48.4375 C 45.140625 -48.4375 45.046875 -48.554688 45.046875 -48.796875 C 44.984375 -48.984375 44.953125 -49.164062 44.953125 -49.34375 C 44.953125 -49.53125 45.015625 -49.75 45.140625 -50 C 45.378906 -50.300781 45.257812 -50.515625 44.78125 -50.640625 C 44.164062 -50.753906 43.550781 -50.859375 42.9375 -50.953125 C 42.332031 -51.046875 41.722656 -51.0625 41.109375 -51 L 31.859375 -49.625 C 31.066406 -49.5625 30.289062 -49.484375 29.53125 -49.390625 C 28.769531 -49.304688 28.019531 -49.203125 27.28125 -49.078125 C 25.570312 -48.890625 23.894531 -48.6875 22.25 -48.46875 C 20.601562 -48.257812 18.957031 -48.066406 17.3125 -47.890625 L 9.515625 -46.78125 C 9.460938 -46.78125 9.40625 -46.78125 9.34375 -46.78125 C 9.28125 -46.78125 9.1875 -46.78125 9.0625 -46.78125 C 8.695312 -46.726562 8.421875 -46.488281 8.234375 -46.0625 L 7.421875 -43.21875 C 6.617188 -40.46875 5.867188 -37.703125 5.171875 -34.921875 C 4.472656 -32.148438 3.785156 -29.359375 3.109375 -26.546875 C 2.503906 -23.984375 1.878906 -21.4375 1.234375 -18.90625 C 0.597656 -16.375 -0.0234375 -13.828125 -0.640625 -11.265625 C -1.066406 -9.554688 -1.429688 -7.859375 -1.734375 -6.171875 C -2.046875 -4.492188 -2.289062 -2.769531 -2.46875 -1 C -2.53125 -0.207031 -2.578125 0.582031 -2.609375 1.375 C -2.640625 2.164062 -2.625 2.957031 -2.5625 3.75 L -2.46875 4.390625 C -2.351562 4.515625 -2.234375 4.546875 -2.109375 4.484375 C -1.921875 4.304688 -1.796875 4.15625 -1.734375 4.03125 C -1.304688 3.539062 -0.925781 3.035156 -0.59375 2.515625 C -0.257812 1.992188 0.03125 1.460938 0.28125 0.921875 C 1.3125 -1.035156 2.300781 -3.019531 3.25 -5.03125 C 4.195312 -7.050781 5.097656 -9.066406 5.953125 -11.078125 C 7.171875 -13.828125 8.359375 -16.570312 9.515625 -19.3125 C 10.679688 -22.0625 11.9375 -24.78125 13.28125 -27.46875 C 13.707031 -28.445312 14.191406 -29.425781 14.734375 -30.40625 C 14.859375 -30.769531 15.164062 -30.859375 15.65625 -30.671875 C 15.90625 -30.671875 15.96875 -30.550781 15.84375 -30.3125 C 15.84375 -30.3125 15.78125 -30.1875 15.65625 -29.9375 C 13.757812 -25.789062 11.878906 -21.59375 10.015625 -17.34375 C 8.160156 -13.101562 6.285156 -8.878906 4.390625 -4.671875 C 3.847656 -3.515625 3.316406 -2.367188 2.796875 -1.234375 C 2.273438 -0.109375 1.675781 1.003906 1 2.109375 C 0.757812 2.597656 0.484375 3.070312 0.171875 3.53125 C -0.128906 3.988281 -0.460938 4.429688 -0.828125 4.859375 C -0.941406 5.035156 -1.125 5.25 -1.375 5.5 C -1.675781 5.800781 -2.007812 5.921875 -2.375 5.859375 Z M -2.375 5.859375 "/></g></g></g><g fill="#000000" fill-opacity="1"><g transform="translate(206.452599, 296.47009)"><g><path d="M 12.8125 -22.4375 C 12.207031 -22.007812 11.628906 -21.851562 11.078125 -21.96875 C 10.523438 -22.09375 9.976562 -22.335938 9.4375 -22.703125 C 9.1875 -22.828125 8.972656 -23.164062 8.796875 -23.71875 C 8.671875 -24.207031 8.609375 -24.707031 8.609375 -25.21875 C 8.609375 -25.738281 8.640625 -26.273438 8.703125 -26.828125 C 8.878906 -27.921875 9.117188 -29.003906 9.421875 -30.078125 C 9.734375 -31.148438 10.101562 -32.203125 10.53125 -33.234375 C 10.59375 -33.421875 10.664062 -33.601562 10.75 -33.78125 C 10.84375 -33.96875 10.832031 -34.15625 10.71875 -34.34375 C 10.53125 -34.34375 10.40625 -34.28125 10.34375 -34.15625 C 10.28125 -34.03125 10.191406 -33.90625 10.078125 -33.78125 L 5.03125 -27.65625 C 4.726562 -27.289062 4.394531 -26.921875 4.03125 -26.546875 C 3.664062 -26.179688 3.328125 -25.816406 3.015625 -25.453125 C 2.960938 -25.390625 2.875 -25.328125 2.75 -25.265625 C 2.625 -25.210938 2.5 -25.125 2.375 -25 C 1.582031 -24.445312 0.882812 -24.507812 0.28125 -25.1875 C 0.09375 -25.363281 0 -25.578125 0 -25.828125 L 0.28125 -27.109375 C 1.132812 -29.421875 2.382812 -31.398438 4.03125 -33.046875 C 4.332031 -33.359375 4.664062 -33.601562 5.03125 -33.78125 C 5.519531 -34.207031 6.191406 -34.300781 7.046875 -34.0625 L 7.515625 -33.875 C 7.992188 -33.632812 8.3125 -33.554688 8.46875 -33.640625 C 8.625 -33.734375 8.851562 -33.96875 9.15625 -34.34375 L 11.8125 -37.625 C 11.875 -37.75 11.992188 -37.90625 12.171875 -38.09375 C 12.546875 -38.457031 12.945312 -38.515625 13.375 -38.265625 C 13.675781 -38.085938 13.796875 -37.847656 13.734375 -37.546875 C 13.671875 -37.296875 13.609375 -37.0625 13.546875 -36.84375 C 13.484375 -36.632812 13.394531 -36.410156 13.28125 -36.171875 C 12.851562 -35.003906 12.425781 -33.867188 12 -32.765625 C 11.570312 -31.671875 11.203125 -30.515625 10.890625 -29.296875 C 10.648438 -28.503906 10.453125 -27.726562 10.296875 -26.96875 C 10.148438 -26.207031 10.101562 -25.394531 10.15625 -24.53125 C 10.15625 -24.289062 10.171875 -24.0625 10.203125 -23.84375 C 10.234375 -23.632812 10.28125 -23.410156 10.34375 -23.171875 C 10.46875 -22.921875 10.648438 -22.828125 10.890625 -22.890625 C 11.203125 -22.953125 11.476562 -23.039062 11.71875 -23.15625 C 11.96875 -23.28125 12.210938 -23.40625 12.453125 -23.53125 C 13.671875 -24.320312 14.800781 -25.238281 15.84375 -26.28125 C 16.332031 -26.769531 16.816406 -27.269531 17.296875 -27.78125 C 17.785156 -28.300781 18.242188 -28.804688 18.671875 -29.296875 C 18.859375 -29.421875 19.023438 -29.554688 19.171875 -29.703125 C 19.328125 -29.859375 19.46875 -30 19.59375 -30.125 C 19.894531 -30.425781 20.203125 -30.488281 20.515625 -30.3125 C 20.941406 -30.125 20.972656 -29.878906 20.609375 -29.578125 C 19.867188 -28.785156 19.132812 -27.988281 18.40625 -27.1875 C 17.675781 -26.394531 16.910156 -25.632812 16.109375 -24.90625 C 15.679688 -24.539062 15.285156 -24.1875 14.921875 -23.84375 C 14.554688 -23.507812 14.128906 -23.191406 13.640625 -22.890625 Z M 1.734375 -26 C 2.046875 -26.125 2.289062 -26.289062 2.46875 -26.5 C 2.65625 -26.71875 2.835938 -26.921875 3.015625 -27.109375 C 3.867188 -28.015625 4.675781 -28.941406 5.4375 -29.890625 C 6.207031 -30.835938 6.988281 -31.769531 7.78125 -32.6875 C 8.082031 -33.113281 7.960938 -33.421875 7.421875 -33.609375 C 7.054688 -33.660156 6.71875 -33.597656 6.40625 -33.421875 C 6.164062 -33.359375 5.921875 -33.21875 5.671875 -33 C 5.429688 -32.789062 5.21875 -32.59375 5.03125 -32.40625 C 3.632812 -30.757812 2.503906 -28.835938 1.640625 -26.640625 C 1.523438 -26.460938 1.554688 -26.25 1.734375 -26 Z M 1.734375 -26 "/></g></g></g><g fill="#000000" fill-opacity="1"><g transform="translate(224.581951, 296.47009)"><g><path d="M 22.984375 -30.3125 C 23.585938 -30.0625 23.648438 -29.691406 23.171875 -29.203125 L 20.78125 -27.1875 C 16.269531 -23.34375 12 -19.164062 7.96875 -14.65625 C 7.351562 -13.976562 6.863281 -13.210938 6.5 -12.359375 C 5.457031 -9.921875 4.375 -7.507812 3.25 -5.125 C 2.125 -2.75 0.945312 -0.367188 -0.28125 2.015625 C -0.882812 3.171875 -1.503906 4.296875 -2.140625 5.390625 C -2.785156 6.492188 -3.535156 7.566406 -4.390625 8.609375 C -4.640625 8.910156 -4.914062 9.210938 -5.21875 9.515625 C -5.519531 9.828125 -5.828125 10.132812 -6.140625 10.4375 C -6.867188 10.863281 -7.566406 10.925781 -8.234375 10.625 C -8.910156 10.375 -9.21875 9.882812 -9.15625 9.15625 C -9.15625 8.601562 -9.0625 8.113281 -8.875 7.6875 C -8.695312 7.019531 -8.46875 6.394531 -8.1875 5.8125 C -7.914062 5.226562 -7.628906 4.632812 -7.328125 4.03125 C -6.410156 2.382812 -5.429688 0.769531 -4.390625 -0.8125 C -3.359375 -2.40625 -2.257812 -3.96875 -1.09375 -5.5 C -0.125 -6.71875 0.847656 -7.953125 1.828125 -9.203125 C 2.804688 -10.453125 3.785156 -11.6875 4.765625 -12.90625 C 4.941406 -13.09375 5.09375 -13.273438 5.21875 -13.453125 C 5.34375 -13.640625 5.4375 -13.828125 5.5 -14.015625 C 7.019531 -17.492188 8.585938 -20.941406 10.203125 -24.359375 C 11.828125 -27.773438 13.398438 -31.222656 14.921875 -34.703125 C 15.046875 -34.941406 15.164062 -35.179688 15.28125 -35.421875 C 15.40625 -35.671875 15.46875 -35.921875 15.46875 -36.171875 C 15.351562 -36.285156 15.25 -36.296875 15.15625 -36.203125 C 15.0625 -36.117188 14.953125 -36.046875 14.828125 -35.984375 C 14.335938 -35.554688 13.847656 -35.144531 13.359375 -34.75 C 12.878906 -34.351562 12.394531 -33.941406 11.90625 -33.515625 C 10.070312 -31.984375 8.238281 -30.515625 6.40625 -29.109375 C 6.039062 -28.867188 5.660156 -28.625 5.265625 -28.375 C 4.867188 -28.132812 4.457031 -27.894531 4.03125 -27.65625 C 3.238281 -27.226562 2.472656 -27.285156 1.734375 -27.828125 C 1.429688 -28.140625 1.3125 -28.445312 1.375 -28.75 C 1.375 -28.9375 1.390625 -29.117188 1.421875 -29.296875 C 1.453125 -29.484375 1.5 -29.664062 1.5625 -29.84375 C 2.414062 -31.800781 3.664062 -33.421875 5.3125 -34.703125 C 5.976562 -35.191406 6.648438 -35.46875 7.328125 -35.53125 C 8.359375 -35.707031 9.242188 -35.398438 9.984375 -34.609375 C 8.640625 -35.097656 7.382812 -34.851562 6.21875 -33.875 C 5.425781 -33.269531 4.738281 -32.550781 4.15625 -31.71875 C 3.582031 -30.894531 3.113281 -30.023438 2.75 -29.109375 C 2.6875 -28.992188 2.65625 -28.84375 2.65625 -28.65625 C 2.65625 -28.476562 2.75 -28.390625 2.9375 -28.390625 C 3.363281 -28.566406 3.789062 -28.804688 4.21875 -29.109375 C 5.1875 -29.722656 6.113281 -30.363281 7 -31.03125 C 7.882812 -31.707031 8.753906 -32.410156 9.609375 -33.140625 C 11.503906 -34.609375 13.367188 -36.195312 15.203125 -37.90625 C 15.316406 -38.03125 15.421875 -38.117188 15.515625 -38.171875 C 15.609375 -38.234375 15.71875 -38.296875 15.84375 -38.359375 C 16.144531 -38.671875 16.367188 -38.828125 16.515625 -38.828125 C 16.671875 -38.828125 16.9375 -38.703125 17.3125 -38.453125 C 17.613281 -38.148438 17.734375 -37.875 17.671875 -37.625 C 17.609375 -37.382812 17.546875 -37.15625 17.484375 -36.9375 C 17.421875 -36.726562 17.332031 -36.503906 17.21875 -36.265625 C 16.601562 -34.609375 15.925781 -32.972656 15.1875 -31.359375 C 14.457031 -29.742188 13.726562 -28.140625 13 -26.546875 C 12.394531 -25.328125 11.800781 -24.09375 11.21875 -22.84375 C 10.632812 -21.59375 10.066406 -20.359375 9.515625 -19.140625 C 9.460938 -18.953125 9.390625 -18.765625 9.296875 -18.578125 C 9.203125 -18.398438 9.1875 -18.191406 9.25 -17.953125 C 9.800781 -18.554688 10.363281 -19.132812 10.9375 -19.6875 C 11.519531 -20.238281 12.085938 -20.816406 12.640625 -21.421875 L 19.875 -28.296875 C 20.664062 -29.085938 21.425781 -29.726562 22.15625 -30.21875 C 22.40625 -30.394531 22.679688 -30.425781 22.984375 -30.3125 Z M 2.84375 -8.515625 L 2.84375 -8.609375 C 2.84375 -8.609375 2.84375 -8.59375 2.84375 -8.5625 C 2.84375 -8.53125 2.8125 -8.515625 2.75 -8.515625 Z M 2.65625 -7.515625 C 2.894531 -7.941406 2.925781 -8.273438 2.75 -8.515625 L 0.09375 -4.859375 C -1.007812 -3.390625 -2.078125 -1.890625 -3.109375 -0.359375 C -4.148438 1.160156 -5.128906 2.742188 -6.046875 4.390625 C -6.347656 5.003906 -6.648438 5.613281 -6.953125 6.21875 C -7.265625 6.832031 -7.507812 7.476562 -7.6875 8.15625 C -7.875 8.582031 -7.96875 9.066406 -7.96875 9.609375 C -7.96875 9.671875 -7.953125 9.71875 -7.921875 9.75 C -7.890625 9.78125 -7.875 9.796875 -7.875 9.796875 C -7.75 9.921875 -7.628906 9.921875 -7.515625 9.796875 C -7.023438 9.492188 -6.535156 9.035156 -6.046875 8.421875 C -5.554688 7.929688 -5.128906 7.394531 -4.765625 6.8125 C -4.398438 6.238281 -4.03125 5.644531 -3.65625 5.03125 C -2.800781 3.632812 -1.992188 2.15625 -1.234375 0.59375 C -0.472656 -0.957031 0.269531 -2.5 1 -4.03125 Z M 2.65625 -7.515625 "/></g></g></g><g fill="#000000" fill-opacity="1"><g transform="translate(245.366614, 296.47009)"><g><path d="M 3.203125 -21.703125 C 2.710938 -21.828125 2.269531 -22.007812 1.875 -22.25 C 1.476562 -22.488281 1.066406 -22.796875 0.640625 -23.171875 C 0.273438 -23.535156 0.09375 -24.019531 0.09375 -24.625 C -0.09375 -25.539062 -0.03125 -26.519531 0.28125 -27.5625 C 0.457031 -28.226562 0.679688 -28.894531 0.953125 -29.5625 C 1.234375 -30.238281 1.523438 -30.882812 1.828125 -31.5 C 2.316406 -32.414062 2.835938 -33.316406 3.390625 -34.203125 C 3.941406 -35.085938 4.550781 -35.925781 5.21875 -36.71875 C 5.519531 -37.019531 5.804688 -37.304688 6.078125 -37.578125 C 6.359375 -37.859375 6.648438 -38.085938 6.953125 -38.265625 C 7.265625 -38.578125 7.539062 -38.765625 7.78125 -38.828125 C 8.207031 -39.003906 8.679688 -38.96875 9.203125 -38.71875 C 9.722656 -38.476562 10.039062 -38.144531 10.15625 -37.71875 C 10.21875 -37.476562 10.21875 -37.234375 10.15625 -36.984375 C 10.101562 -36.554688 9.96875 -36.160156 9.75 -35.796875 C 9.539062 -35.429688 9.3125 -35.066406 9.0625 -34.703125 C 8.507812 -33.910156 7.894531 -33.144531 7.21875 -32.40625 C 6.550781 -31.675781 5.851562 -30.976562 5.125 -30.3125 C 4.757812 -30 4.378906 -29.707031 3.984375 -29.4375 C 3.585938 -29.164062 3.207031 -28.875 2.84375 -28.5625 C 2.65625 -28.445312 2.515625 -28.296875 2.421875 -28.109375 C 2.335938 -27.921875 2.234375 -27.738281 2.109375 -27.5625 C 1.742188 -26.457031 1.617188 -25.207031 1.734375 -23.8125 C 1.796875 -22.957031 2.253906 -22.617188 3.109375 -22.796875 C 3.472656 -22.859375 3.835938 -22.921875 4.203125 -22.984375 C 4.578125 -23.046875 4.945312 -23.132812 5.3125 -23.25 C 5.800781 -23.4375 6.257812 -23.648438 6.6875 -23.890625 C 7.113281 -24.140625 7.539062 -24.382812 7.96875 -24.625 C 8.519531 -25 9.265625 -25.519531 10.203125 -26.1875 C 11.148438 -26.851562 12.097656 -27.550781 13.046875 -28.28125 C 13.992188 -29.019531 14.710938 -29.570312 15.203125 -29.9375 L 15.9375 -30.484375 C 16.363281 -30.796875 16.648438 -30.953125 16.796875 -30.953125 C 16.953125 -30.953125 17.304688 -30.738281 17.859375 -30.3125 C 17.734375 -30.1875 17.609375 -30.09375 17.484375 -30.03125 C 17.367188 -29.96875 17.25 -29.878906 17.125 -29.765625 C 16.445312 -29.210938 15.546875 -28.492188 14.421875 -27.609375 C 13.296875 -26.722656 12.164062 -25.867188 11.03125 -25.046875 C 9.90625 -24.222656 8.945312 -23.597656 8.15625 -23.171875 C 7.539062 -22.796875 6.925781 -22.488281 6.3125 -22.25 C 5.707031 -22.007812 5.035156 -21.828125 4.296875 -21.703125 C 3.929688 -21.640625 3.566406 -21.640625 3.203125 -21.703125 Z M 3.296875 -30.21875 C 3.421875 -30.15625 3.570312 -30.21875 3.75 -30.40625 C 4.238281 -30.882812 4.742188 -31.351562 5.265625 -31.8125 C 5.785156 -32.269531 6.257812 -32.773438 6.6875 -33.328125 C 7.050781 -33.816406 7.414062 -34.289062 7.78125 -34.75 C 8.144531 -35.207031 8.453125 -35.710938 8.703125 -36.265625 C 9.003906 -36.742188 9.15625 -37.195312 9.15625 -37.625 C 9.15625 -37.9375 9.035156 -38.03125 8.796875 -37.90625 C 8.484375 -37.78125 8.203125 -37.609375 7.953125 -37.390625 C 7.710938 -37.179688 7.472656 -36.957031 7.234375 -36.71875 C 6.441406 -35.800781 5.707031 -34.820312 5.03125 -33.78125 C 4.363281 -32.75 3.785156 -31.679688 3.296875 -30.578125 C 3.234375 -30.398438 3.234375 -30.28125 3.296875 -30.21875 Z M 3.296875 -30.21875 "/></g></g></g><g fill="#000000" fill-opacity="1"><g transform="translate(158.730721, 237.741412)"><g><path d="M 4.609375 -6.015625 C 4.734375 -6.015625 4.832031 -5.976562 4.90625 -5.90625 C 4.988281 -5.832031 5.03125 -5.738281 5.03125 -5.625 C 5.03125 -5.5 4.988281 -5.398438 4.90625 -5.328125 C 4.832031 -5.265625 4.734375 -5.234375 4.609375 -5.234375 L 3.078125 -5.234375 L 3.078125 -0.40625 C 3.078125 -0.289062 3.035156 -0.191406 2.953125 -0.109375 C 2.878906 -0.0351562 2.773438 0 2.640625 0 C 2.515625 0 2.410156 -0.0351562 2.328125 -0.109375 C 2.242188 -0.191406 2.203125 -0.289062 2.203125 -0.40625 L 2.203125 -5.234375 L 0.6875 -5.234375 C 0.5625 -5.234375 0.460938 -5.269531 0.390625 -5.34375 C 0.316406 -5.414062 0.28125 -5.507812 0.28125 -5.625 C 0.28125 -5.738281 0.316406 -5.832031 0.390625 -5.90625 C 0.460938 -5.976562 0.5625 -6.015625 0.6875 -6.015625 Z M 4.609375 -6.015625 "/></g></g></g><g fill="#000000" fill-opacity="1"><g transform="translate(170.908, 237.741412)"><g><path d="M 5.34375 -0.53125 C 5.351562 -0.476562 5.359375 -0.425781 5.359375 -0.375 C 5.359375 -0.257812 5.316406 -0.160156 5.234375 -0.078125 C 5.160156 -0.00390625 5.070312 0.03125 4.96875 0.03125 C 4.894531 0.03125 4.820312 0.00390625 4.75 -0.046875 C 4.6875 -0.0976562 4.632812 -0.164062 4.59375 -0.25 L 4.0625 -1.515625 L 1.40625 -1.515625 L 0.890625 -0.234375 C 0.859375 -0.148438 0.804688 -0.0820312 0.734375 -0.03125 C 0.671875 0.0078125 0.601562 0.03125 0.53125 0.03125 C 0.40625 0.03125 0.3125 0 0.25 -0.0625 C 0.1875 -0.125 0.15625 -0.210938 0.15625 -0.328125 C 0.15625 -0.347656 0.160156 -0.394531 0.171875 -0.46875 L 2.359375 -5.78125 C 2.398438 -5.863281 2.457031 -5.929688 2.53125 -5.984375 C 2.601562 -6.035156 2.6875 -6.054688 2.78125 -6.046875 C 2.863281 -6.046875 2.9375 -6.019531 3 -5.96875 C 3.070312 -5.925781 3.125 -5.863281 3.15625 -5.78125 Z M 1.734375 -2.296875 L 3.734375 -2.296875 L 2.734375 -4.703125 Z M 1.734375 -2.296875 "/></g></g></g><g fill="#000000" fill-opacity="1"><g transform="translate(183.300123, 237.741412)"><g><path d="M 2.53125 0.09375 C 2.113281 0.09375 1.742188 0.0351562 1.421875 -0.078125 C 1.109375 -0.203125 0.800781 -0.394531 0.5 -0.65625 C 0.382812 -0.757812 0.328125 -0.878906 0.328125 -1.015625 C 0.328125 -1.117188 0.363281 -1.210938 0.4375 -1.296875 C 0.519531 -1.378906 0.617188 -1.421875 0.734375 -1.421875 C 0.828125 -1.421875 0.910156 -1.390625 0.984375 -1.328125 C 1.210938 -1.109375 1.445312 -0.945312 1.6875 -0.84375 C 1.925781 -0.75 2.203125 -0.703125 2.515625 -0.703125 C 2.878906 -0.703125 3.1875 -0.785156 3.4375 -0.953125 C 3.6875 -1.117188 3.8125 -1.328125 3.8125 -1.578125 C 3.800781 -1.878906 3.671875 -2.109375 3.421875 -2.265625 C 3.179688 -2.429688 2.816406 -2.570312 2.328125 -2.6875 C 1.734375 -2.800781 1.273438 -2.992188 0.953125 -3.265625 C 0.640625 -3.546875 0.484375 -3.929688 0.484375 -4.421875 C 0.484375 -4.753906 0.570312 -5.046875 0.75 -5.296875 C 0.925781 -5.554688 1.171875 -5.753906 1.484375 -5.890625 C 1.796875 -6.035156 2.148438 -6.109375 2.546875 -6.109375 C 2.898438 -6.109375 3.234375 -6.050781 3.546875 -5.9375 C 3.867188 -5.820312 4.128906 -5.664062 4.328125 -5.46875 C 4.453125 -5.351562 4.515625 -5.234375 4.515625 -5.109375 C 4.515625 -5.003906 4.472656 -4.910156 4.390625 -4.828125 C 4.316406 -4.742188 4.226562 -4.703125 4.125 -4.703125 C 4.039062 -4.703125 3.972656 -4.726562 3.921875 -4.78125 C 3.773438 -4.925781 3.566406 -5.050781 3.296875 -5.15625 C 3.035156 -5.257812 2.785156 -5.3125 2.546875 -5.3125 C 2.171875 -5.3125 1.867188 -5.234375 1.640625 -5.078125 C 1.410156 -4.921875 1.296875 -4.710938 1.296875 -4.453125 C 1.296875 -4.171875 1.410156 -3.953125 1.640625 -3.796875 C 1.867188 -3.648438 2.203125 -3.523438 2.640625 -3.421875 C 3.085938 -3.328125 3.453125 -3.210938 3.734375 -3.078125 C 4.023438 -2.953125 4.242188 -2.769531 4.390625 -2.53125 C 4.546875 -2.300781 4.625 -1.992188 4.625 -1.609375 C 4.625 -1.285156 4.53125 -0.992188 4.34375 -0.734375 C 4.164062 -0.472656 3.914062 -0.269531 3.59375 -0.125 C 3.269531 0.0195312 2.914062 0.09375 2.53125 0.09375 Z M 2.53125 0.09375 "/></g></g></g><g fill="#000000" fill-opacity="1"><g transform="translate(195.176626, 237.741412)"><g><path d="M 4.609375 -6.015625 C 4.734375 -6.015625 4.832031 -5.976562 4.90625 -5.90625 C 4.988281 -5.832031 5.03125 -5.738281 5.03125 -5.625 C 5.03125 -5.5 4.988281 -5.398438 4.90625 -5.328125 C 4.832031 -5.265625 4.734375 -5.234375 4.609375 -5.234375 L 3.078125 -5.234375 L 3.078125 -0.40625 C 3.078125 -0.289062 3.035156 -0.191406 2.953125 -0.109375 C 2.878906 -0.0351562 2.773438 0 2.640625 0 C 2.515625 0 2.410156 -0.0351562 2.328125 -0.109375 C 2.242188 -0.191406 2.203125 -0.289062 2.203125 -0.40625 L 2.203125 -5.234375 L 0.6875 -5.234375 C 0.5625 -5.234375 0.460938 -5.269531 0.390625 -5.34375 C 0.316406 -5.414062 0.28125 -5.507812 0.28125 -5.625 C 0.28125 -5.738281 0.316406 -5.832031 0.390625 -5.90625 C 0.460938 -5.976562 0.5625 -6.015625 0.6875 -6.015625 Z M 4.609375 -6.015625 "/></g></g></g><g fill="#000000" fill-opacity="1"><g transform="translate(207.353903, 237.741412)"><g><path d="M 4.109375 -0.796875 C 4.234375 -0.796875 4.332031 -0.753906 4.40625 -0.671875 C 4.488281 -0.585938 4.53125 -0.492188 4.53125 -0.390625 C 4.53125 -0.273438 4.488281 -0.179688 4.40625 -0.109375 C 4.332031 -0.0351562 4.234375 0 4.109375 0 L 1.125 0 C 1.007812 0 0.910156 -0.0351562 0.828125 -0.109375 C 0.753906 -0.191406 0.71875 -0.289062 0.71875 -0.40625 L 0.71875 -5.609375 C 0.71875 -5.722656 0.753906 -5.816406 0.828125 -5.890625 C 0.910156 -5.972656 1.007812 -6.015625 1.125 -6.015625 L 4.109375 -6.015625 C 4.234375 -6.015625 4.332031 -5.976562 4.40625 -5.90625 C 4.488281 -5.832031 4.53125 -5.734375 4.53125 -5.609375 C 4.53125 -5.492188 4.488281 -5.398438 4.40625 -5.328125 C 4.332031 -5.253906 4.234375 -5.21875 4.109375 -5.21875 L 1.5625 -5.21875 L 1.5625 -3.46875 L 3.734375 -3.46875 C 3.847656 -3.46875 3.941406 -3.429688 4.015625 -3.359375 C 4.097656 -3.285156 4.140625 -3.191406 4.140625 -3.078125 C 4.140625 -2.953125 4.097656 -2.851562 4.015625 -2.78125 C 3.941406 -2.71875 3.847656 -2.6875 3.734375 -2.6875 L 1.5625 -2.6875 L 1.5625 -0.796875 Z M 4.109375 -0.796875 "/></g></g></g></svg>