<svg xmlns="http://www.w3.org/2000/svg" xmlns:xlink="http://www.w3.org/1999/xlink" width="500" zoomAndPan="magnify" viewBox="0 0 375 374.999991" height="500" preserveAspectRatio="xMidYMid meet" version="1.0"><defs><g/><clipPath id="ca15dc1174"><path d="M 169 114 L 207.355469 114 L 207.355469 166.5 L 169 166.5 Z M 169 114 " clip-rule="nonzero"/></clipPath></defs><g clip-path="url(#ca15dc1174)"><path fill="#ac7e28" d="M 206.554688 122.5625 C 206.046875 122.28125 205.511719 122.273438 205.355469 122.550781 L 200.003906 132.066406 C 199.761719 132.113281 199.429688 132.042969 199.109375 131.863281 C 198.789062 131.683594 198.558594 131.433594 198.46875 131.207031 L 203.824219 121.6875 C 203.980469 121.414062 203.695312 120.957031 203.1875 120.671875 C 202.683594 120.386719 202.144531 120.382812 201.992188 120.660156 L 196.65625 130.144531 C 196.414062 130.210938 196.054688 130.144531 195.710938 129.953125 C 195.457031 129.808594 195.261719 129.625 195.144531 129.441406 L 200.542969 119.84375 C 200.699219 119.566406 200.414062 119.113281 199.90625 118.824219 C 199.402344 118.542969 198.863281 118.535156 198.710938 118.8125 L 192.734375 129.4375 C 191.421875 131.773438 191.777344 134.539062 193.449219 136.074219 L 187.367188 146.316406 L 187.082031 134.285156 C 187.082031 134.203125 187.082031 134.121094 187.078125 134.042969 C 189.953125 133.308594 192.148438 129.335938 192.148438 124.542969 C 192.148438 119.230469 189.449219 114.921875 186.121094 114.921875 C 182.792969 114.921875 180.097656 119.230469 180.097656 124.542969 C 180.097656 129.335938 182.292969 133.308594 185.167969 134.042969 C 185.164062 134.121094 185.164062 134.203125 185.164062 134.285156 L 184.894531 145.730469 C 179.398438 134.960938 173.042969 122.355469 170.972656 117.671875 C 168.023438 111 167.652344 134.265625 181.984375 144.6875 L 182.011719 144.664062 L 184.777344 150.523438 L 184.777344 150.679688 L 177.632812 162.703125 C 177.167969 163.53125 177.460938 164.582031 178.289062 165.046875 C 179.117188 165.515625 180.164062 165.21875 180.632812 164.390625 L 184.628906 156.871094 L 184.445312 164.585938 C 184.445312 165.511719 185.195312 166.261719 186.121094 166.261719 C 187.046875 166.261719 187.800781 165.511719 187.800781 164.585938 L 187.609375 156.515625 L 191.375 164.496094 C 191.722656 165.1875 192.566406 165.464844 193.257812 165.121094 C 193.949219 164.773438 194.226562 163.929688 193.882812 163.242188 C 193.882812 163.242188 191.210938 158.078125 187.667969 151.15625 L 195.171875 137.042969 C 197.355469 137.675781 199.898438 136.542969 201.210938 134.207031 L 201.496094 133.707031 L 204.621094 128.144531 L 207.1875 123.582031 C 207.34375 123.304688 207.058594 122.847656 206.554688 122.5625 " fill-opacity="1" fill-rule="nonzero"/></g><g fill="#ac7e28" fill-opacity="1"><g transform="translate(95.000565, 202.555568)"><g><path d="M 13.390625 0.375 C 11.816406 0.375 10.300781 0.101562 8.84375 -0.4375 C 7.394531 -0.976562 6.085938 -1.773438 4.921875 -2.828125 C 3.765625 -3.878906 2.84375 -5.15625 2.15625 -6.65625 C 1.476562 -8.15625 1.140625 -9.851562 1.140625 -11.75 C 1.140625 -13.726562 1.492188 -15.488281 2.203125 -17.03125 C 2.910156 -18.570312 3.867188 -19.863281 5.078125 -20.90625 C 6.296875 -21.957031 7.660156 -22.757812 9.171875 -23.3125 C 10.691406 -23.875 12.257812 -24.15625 13.875 -24.15625 C 15.75 -24.15625 17.347656 -23.84375 18.671875 -23.21875 C 20.003906 -22.601562 21.015625 -21.835938 21.703125 -20.921875 C 22.398438 -20.015625 22.75 -19.132812 22.75 -18.28125 C 22.75 -17.644531 22.550781 -17.113281 22.15625 -16.6875 C 21.769531 -16.257812 21.25 -16.046875 20.59375 -16.046875 C 20.007812 -16.046875 19.519531 -16.210938 19.125 -16.546875 C 18.738281 -16.890625 18.546875 -17.351562 18.546875 -17.9375 C 18.546875 -18.664062 18.351562 -19.414062 17.96875 -20.1875 C 17.59375 -20.957031 16.972656 -21.609375 16.109375 -22.140625 C 15.253906 -22.671875 14.117188 -22.9375 12.703125 -22.9375 C 11.160156 -22.9375 9.78125 -22.5625 8.5625 -21.8125 C 7.351562 -21.070312 6.40625 -20.003906 5.71875 -18.609375 C 5.039062 -17.222656 4.703125 -15.554688 4.703125 -13.609375 C 4.703125 -11.867188 4.992188 -10.238281 5.578125 -8.71875 C 6.160156 -7.207031 6.957031 -5.878906 7.96875 -4.734375 C 8.976562 -3.597656 10.15625 -2.710938 11.5 -2.078125 C 12.851562 -1.453125 14.300781 -1.140625 15.84375 -1.140625 C 16.726562 -1.140625 17.472656 -1.289062 18.078125 -1.59375 C 18.691406 -1.894531 19 -2.523438 19 -3.484375 L 19 -8 C 19 -8.550781 18.921875 -8.96875 18.765625 -9.25 C 18.617188 -9.53125 18.3125 -9.726562 17.84375 -9.84375 C 17.375 -9.957031 16.660156 -10.050781 15.703125 -10.125 L 15.703125 -10.765625 L 24.578125 -10.8125 L 24.578125 -10.125 C 23.890625 -10.050781 23.375 -9.945312 23.03125 -9.8125 C 22.695312 -9.6875 22.472656 -9.488281 22.359375 -9.21875 C 22.242188 -8.957031 22.1875 -8.550781 22.1875 -8 L 22.1875 0 C 21.601562 -0.457031 21.019531 -0.703125 20.4375 -0.734375 C 19.851562 -0.773438 19.226562 -0.703125 18.5625 -0.515625 C 17.894531 -0.328125 17.144531 -0.132812 16.3125 0.0625 C 15.476562 0.269531 14.503906 0.375 13.390625 0.375 Z M 13.390625 0.375 "/></g></g></g><g fill="#ac7e28" fill-opacity="1"><g transform="translate(121.843146, 202.555568)"><g><path d="M 13.078125 0.375 C 10.804688 0.375 8.769531 -0.144531 6.96875 -1.1875 C 5.175781 -2.238281 3.753906 -3.675781 2.703125 -5.5 C 1.660156 -7.320312 1.140625 -9.382812 1.140625 -11.6875 C 1.140625 -13.445312 1.453125 -15.085938 2.078125 -16.609375 C 2.710938 -18.128906 3.59375 -19.453125 4.71875 -20.578125 C 5.84375 -21.703125 7.148438 -22.578125 8.640625 -23.203125 C 10.140625 -23.835938 11.757812 -24.15625 13.5 -24.15625 C 15.195312 -24.15625 16.769531 -23.859375 18.21875 -23.265625 C 19.675781 -22.671875 20.941406 -21.828125 22.015625 -20.734375 C 23.085938 -19.648438 23.925781 -18.375 24.53125 -16.90625 C 25.144531 -15.445312 25.453125 -13.859375 25.453125 -12.140625 C 25.453125 -10.367188 25.132812 -8.71875 24.5 -7.1875 C 23.863281 -5.65625 22.984375 -4.328125 21.859375 -3.203125 C 20.734375 -2.078125 19.425781 -1.195312 17.9375 -0.5625 C 16.445312 0.0625 14.828125 0.375 13.078125 0.375 Z M 13.953125 -0.828125 C 15.191406 -0.828125 16.398438 -1.148438 17.578125 -1.796875 C 18.753906 -2.441406 19.726562 -3.488281 20.5 -4.9375 C 21.269531 -6.394531 21.65625 -8.335938 21.65625 -10.765625 C 21.65625 -13.191406 21.242188 -15.316406 20.421875 -17.140625 C 19.597656 -18.960938 18.503906 -20.382812 17.140625 -21.40625 C 15.773438 -22.425781 14.269531 -22.9375 12.625 -22.9375 C 11.382812 -22.9375 10.175781 -22.617188 9 -21.984375 C 7.832031 -21.359375 6.863281 -20.320312 6.09375 -18.875 C 5.320312 -17.4375 4.9375 -15.503906 4.9375 -13.078125 C 4.9375 -10.648438 5.34375 -8.515625 6.15625 -6.671875 C 6.976562 -4.828125 8.078125 -3.390625 9.453125 -2.359375 C 10.835938 -1.335938 12.335938 -0.828125 13.953125 -0.828125 Z M 13.953125 -0.828125 "/></g></g></g><g fill="#ac7e28" fill-opacity="1"><g transform="translate(150.12642, 202.555568)"><g><path d="M 12.46875 0.375 C 10.726562 0.375 9.15625 0.0195312 7.75 -0.6875 C 6.351562 -1.394531 5.25 -2.476562 4.4375 -3.9375 C 3.625 -5.40625 3.21875 -7.28125 3.21875 -9.5625 L 3.21875 -20.8125 C 3.21875 -21.519531 3.023438 -21.988281 2.640625 -22.21875 C 2.265625 -22.445312 1.703125 -22.640625 0.953125 -22.796875 L 0.953125 -23.546875 L 8.984375 -23.546875 L 8.984375 -22.796875 C 8.222656 -22.640625 7.644531 -22.445312 7.25 -22.21875 C 6.863281 -21.988281 6.671875 -21.519531 6.671875 -20.8125 L 6.671875 -10.28125 C 6.671875 -7.21875 7.257812 -4.945312 8.4375 -3.46875 C 9.613281 -1.988281 11.210938 -1.25 13.234375 -1.25 C 14.421875 -1.25 15.539062 -1.515625 16.59375 -2.046875 C 17.644531 -2.578125 18.5 -3.488281 19.15625 -4.78125 C 19.8125 -6.070312 20.140625 -7.828125 20.140625 -10.046875 L 20.140625 -20.8125 C 20.140625 -21.519531 19.921875 -21.988281 19.484375 -22.21875 C 19.054688 -22.445312 18.460938 -22.640625 17.703125 -22.796875 L 17.703125 -23.546875 L 23.859375 -23.546875 L 23.859375 -22.796875 C 23.117188 -22.640625 22.539062 -22.445312 22.125 -22.21875 C 21.707031 -21.988281 21.5 -21.519531 21.5 -20.8125 L 21.5 -9.78125 C 21.5 -6.5 20.707031 -3.984375 19.125 -2.234375 C 17.550781 -0.492188 15.332031 0.375 12.46875 0.375 Z M 12.46875 0.375 "/></g></g></g><g fill="#ac7e28" fill-opacity="1"><g transform="translate(176.627783, 202.555568)"><g><path d="M 1.140625 0 L 1.140625 -0.796875 C 1.898438 -0.921875 2.46875 -1.097656 2.84375 -1.328125 C 3.21875 -1.554688 3.40625 -2.023438 3.40625 -2.734375 L 3.40625 -20.8125 C 3.40625 -21.519531 3.21875 -21.988281 2.84375 -22.21875 C 2.46875 -22.445312 1.898438 -22.640625 1.140625 -22.796875 L 1.140625 -23.546875 L 11.453125 -23.546875 C 14.410156 -23.546875 16.640625 -22.988281 18.140625 -21.875 C 19.648438 -20.769531 20.40625 -19.203125 20.40625 -17.171875 C 20.40625 -15.628906 19.960938 -14.382812 19.078125 -13.4375 C 18.191406 -12.488281 16.863281 -11.789062 15.09375 -11.34375 C 14.96875 -11.3125 14.90625 -11.257812 14.90625 -11.1875 C 14.90625 -11.113281 14.96875 -11.050781 15.09375 -11 C 16.28125 -10.664062 17.179688 -10.0625 17.796875 -9.1875 C 18.421875 -8.320312 18.859375 -7.410156 19.109375 -6.453125 C 19.742188 -4.398438 20.285156 -2.941406 20.734375 -2.078125 C 21.191406 -1.222656 21.800781 -0.796875 22.5625 -0.796875 L 22.5625 0 L 21.546875 0 C 20.304688 0 19.304688 -0.234375 18.546875 -0.703125 C 17.785156 -1.171875 17.171875 -1.851562 16.703125 -2.75 C 16.234375 -3.644531 15.8125 -4.738281 15.4375 -6.03125 C 14.925781 -7.75 14.222656 -8.945312 13.328125 -9.625 C 12.429688 -10.3125 11.195312 -10.65625 9.625 -10.65625 C 8.519531 -10.65625 7.78125 -10.492188 7.40625 -10.171875 C 7.039062 -9.859375 6.859375 -9.347656 6.859375 -8.640625 L 6.859375 -2.734375 C 6.859375 -2.023438 7.070312 -1.554688 7.5 -1.328125 C 7.9375 -1.097656 8.625 -0.921875 9.5625 -0.796875 L 9.5625 0 Z M 8.953125 -11.875 L 11.6875 -11.875 C 13.601562 -11.875 14.945312 -12.363281 15.71875 -13.34375 C 16.488281 -14.332031 16.875 -15.585938 16.875 -17.109375 C 16.875 -18.648438 16.488281 -19.910156 15.71875 -20.890625 C 14.945312 -21.878906 13.5625 -22.375 11.5625 -22.375 L 8.34375 -22.375 C 7.914062 -22.375 7.5625 -22.269531 7.28125 -22.0625 C 7 -21.863281 6.859375 -21.4375 6.859375 -20.78125 L 6.859375 -13.875 C 6.859375 -13.164062 7.007812 -12.65625 7.3125 -12.34375 C 7.625 -12.03125 8.171875 -11.875 8.953125 -11.875 Z M 8.953125 -11.875 "/></g></g></g><g fill="#ac7e28" fill-opacity="1"><g transform="translate(201.650538, 202.555568)"><g><path d="M 29.953125 -22.796875 C 29.203125 -22.640625 28.632812 -22.445312 28.25 -22.21875 C 27.875 -21.988281 27.6875 -21.519531 27.6875 -20.8125 L 27.6875 -2.734375 C 27.6875 -2.023438 27.875 -1.554688 28.25 -1.328125 C 28.632812 -1.097656 29.203125 -0.921875 29.953125 -0.796875 L 29.953125 0 L 21.953125 0 L 21.953125 -0.796875 C 22.710938 -0.921875 23.28125 -1.097656 23.65625 -1.328125 C 24.039062 -1.554688 24.234375 -2.023438 24.234375 -2.734375 L 24.234375 -20.75 L 15.328125 -2.421875 L 14.1875 -2.421875 L 4.8125 -20.671875 L 4.8125 -2.734375 C 4.8125 -2.023438 5 -1.554688 5.375 -1.328125 C 5.757812 -1.097656 6.316406 -0.921875 7.046875 -0.796875 L 7.046875 0 L 1.140625 0 L 1.140625 -0.796875 C 1.898438 -0.921875 2.46875 -1.097656 2.84375 -1.328125 C 3.21875 -1.554688 3.40625 -2.023438 3.40625 -2.734375 L 3.40625 -20.8125 C 3.40625 -21.519531 3.21875 -21.988281 2.84375 -22.21875 C 2.46875 -22.445312 1.898438 -22.640625 1.140625 -22.796875 L 1.140625 -23.546875 L 7.015625 -23.546875 L 15.84375 -6.296875 L 24.234375 -23.546875 L 29.953125 -23.546875 Z M 29.953125 -22.796875 "/></g></g></g><g fill="#ac7e28" fill-opacity="1"><g transform="translate(234.445456, 202.555568)"><g><path d="M 1.140625 0 L 1.140625 -0.796875 C 1.898438 -0.921875 2.46875 -1.097656 2.84375 -1.328125 C 3.21875 -1.554688 3.40625 -2.023438 3.40625 -2.734375 L 3.40625 -20.8125 C 3.40625 -21.519531 3.21875 -21.988281 2.84375 -22.21875 C 2.46875 -22.445312 1.898438 -22.640625 1.140625 -22.796875 L 1.140625 -23.546875 L 18.359375 -23.546875 C 18.710938 -23.546875 18.898438 -23.394531 18.921875 -23.09375 C 18.972656 -22.613281 19.046875 -22.054688 19.140625 -21.421875 C 19.242188 -20.796875 19.425781 -19.976562 19.6875 -18.96875 L 18.96875 -18.96875 C 18.507812 -20.101562 17.898438 -20.945312 17.140625 -21.5 C 16.378906 -22.0625 15.351562 -22.34375 14.0625 -22.34375 L 9.21875 -22.34375 C 8.457031 -22.34375 7.875 -22.234375 7.46875 -22.015625 C 7.0625 -21.796875 6.859375 -21.359375 6.859375 -20.703125 L 6.859375 -14.21875 C 6.859375 -13.5625 7.0625 -13.125 7.46875 -12.90625 C 7.875 -12.695312 8.457031 -12.59375 9.21875 -12.59375 L 12.96875 -12.59375 C 14.15625 -12.59375 14.929688 -12.816406 15.296875 -13.265625 C 15.660156 -13.722656 15.921875 -14.382812 16.078125 -15.25 L 16.6875 -15.25 L 16.6875 -8.6875 L 16.078125 -8.6875 C 15.921875 -9.519531 15.660156 -10.175781 15.296875 -10.65625 C 14.929688 -11.132812 14.15625 -11.375 12.96875 -11.375 L 9.21875 -11.375 C 8.457031 -11.375 7.875 -11.265625 7.46875 -11.046875 C 7.0625 -10.835938 6.859375 -10.40625 6.859375 -9.75 L 6.859375 -2.875 C 6.859375 -2.21875 7.101562 -1.773438 7.59375 -1.546875 C 8.09375 -1.328125 9.035156 -1.226562 10.421875 -1.25 L 14.796875 -1.296875 C 16.179688 -1.316406 17.144531 -1.507812 17.6875 -1.875 C 18.226562 -2.238281 18.65625 -2.675781 18.96875 -3.1875 L 19.875 -4.59375 L 20.625 -4.59375 C 20.351562 -4.03125 20.128906 -3.453125 19.953125 -2.859375 C 19.773438 -2.265625 19.617188 -1.488281 19.484375 -0.53125 C 19.441406 -0.175781 19.242188 0 18.890625 0 Z M 1.140625 0 "/></g></g></g><g fill="#ac7e28" fill-opacity="1"><g transform="translate(257.534649, 202.555568)"><g><path d="M 6.453125 0 L 6.453125 -0.796875 C 7.585938 -0.921875 8.378906 -1.097656 8.828125 -1.328125 C 9.285156 -1.554688 9.515625 -2.023438 9.515625 -2.734375 L 9.515625 -20.515625 C 9.515625 -20.941406 9.453125 -21.285156 9.328125 -21.546875 C 9.203125 -21.816406 8.921875 -22.015625 8.484375 -22.140625 C 8.054688 -22.273438 7.363281 -22.34375 6.40625 -22.34375 C 5.519531 -22.34375 4.804688 -22.234375 4.265625 -22.015625 C 3.722656 -21.796875 3.265625 -21.421875 2.890625 -20.890625 C 2.523438 -20.359375 2.164062 -19.601562 1.8125 -18.625 L 0.953125 -18.625 L 1.5625 -23.65625 L 3.71875 -23.546875 L 18.734375 -23.546875 L 20.890625 -23.65625 L 21.5 -18.625 L 20.625 -18.625 C 20.300781 -19.601562 19.945312 -20.359375 19.5625 -20.890625 C 19.1875 -21.421875 18.726562 -21.796875 18.1875 -22.015625 C 17.644531 -22.234375 16.929688 -22.34375 16.046875 -22.34375 C 15.109375 -22.34375 14.414062 -22.273438 13.96875 -22.140625 C 13.53125 -22.015625 13.253906 -21.816406 13.140625 -21.546875 C 13.023438 -21.285156 12.96875 -20.941406 12.96875 -20.515625 L 12.96875 -2.734375 C 12.96875 -2.023438 13.1875 -1.554688 13.625 -1.328125 C 14.070312 -1.097656 14.863281 -0.921875 16 -0.796875 L 16 0 Z M 6.453125 0 "/></g></g></g><g fill="#ac7e28" fill-opacity="1"><g transform="translate(109.351547, 234.836272)"><g><path d="M 25.0625 -22.796875 C 24.300781 -22.640625 23.734375 -22.445312 23.359375 -22.21875 C 22.984375 -21.988281 22.796875 -21.519531 22.796875 -20.8125 L 22.796875 -2.734375 C 22.796875 -2.023438 22.984375 -1.554688 23.359375 -1.328125 C 23.734375 -1.097656 24.300781 -0.921875 25.0625 -0.796875 L 25.0625 0 L 17.03125 0 L 17.03125 -0.796875 C 17.789062 -0.921875 18.363281 -1.097656 18.75 -1.328125 C 19.144531 -1.554688 19.34375 -2.023438 19.34375 -2.734375 L 19.34375 -9.78125 C 19.34375 -10.644531 18.898438 -11.078125 18.015625 -11.078125 L 8.1875 -11.078125 C 7.300781 -11.078125 6.859375 -10.644531 6.859375 -9.78125 L 6.859375 -2.734375 C 6.859375 -2.023438 7.054688 -1.554688 7.453125 -1.328125 C 7.847656 -1.097656 8.421875 -0.921875 9.171875 -0.796875 L 9.171875 0 L 1.140625 0 L 1.140625 -0.796875 C 1.898438 -0.921875 2.46875 -1.097656 2.84375 -1.328125 C 3.21875 -1.554688 3.40625 -2.023438 3.40625 -2.734375 L 3.40625 -20.8125 C 3.40625 -21.519531 3.21875 -21.988281 2.84375 -22.21875 C 2.46875 -22.445312 1.898438 -22.640625 1.140625 -22.796875 L 1.140625 -23.546875 L 9.171875 -23.546875 L 9.171875 -22.796875 C 8.421875 -22.640625 7.847656 -22.445312 7.453125 -22.21875 C 7.054688 -21.988281 6.859375 -21.519531 6.859375 -20.8125 L 6.859375 -13.578125 C 6.859375 -12.710938 7.316406 -12.28125 8.234375 -12.28125 L 17.96875 -12.28125 C 18.882812 -12.28125 19.34375 -12.710938 19.34375 -13.578125 L 19.34375 -20.8125 C 19.34375 -21.519531 19.144531 -21.988281 18.75 -22.21875 C 18.363281 -22.445312 17.789062 -22.640625 17.03125 -22.796875 L 17.03125 -23.546875 L 25.0625 -23.546875 Z M 25.0625 -22.796875 "/></g></g></g><g fill="#ac7e28" fill-opacity="1"><g transform="translate(137.255687, 234.836272)"><g><path d="M 1.140625 0 L 1.140625 -0.796875 C 1.898438 -0.921875 2.46875 -1.097656 2.84375 -1.328125 C 3.21875 -1.554688 3.40625 -2.023438 3.40625 -2.734375 L 3.40625 -20.8125 C 3.40625 -21.519531 3.21875 -21.988281 2.84375 -22.21875 C 2.46875 -22.445312 1.898438 -22.640625 1.140625 -22.796875 L 1.140625 -23.546875 L 18.359375 -23.546875 C 18.710938 -23.546875 18.898438 -23.394531 18.921875 -23.09375 C 18.972656 -22.613281 19.046875 -22.054688 19.140625 -21.421875 C 19.242188 -20.796875 19.425781 -19.976562 19.6875 -18.96875 L 18.96875 -18.96875 C 18.507812 -20.101562 17.898438 -20.945312 17.140625 -21.5 C 16.378906 -22.0625 15.351562 -22.34375 14.0625 -22.34375 L 9.21875 -22.34375 C 8.457031 -22.34375 7.875 -22.234375 7.46875 -22.015625 C 7.0625 -21.796875 6.859375 -21.359375 6.859375 -20.703125 L 6.859375 -14.21875 C 6.859375 -13.5625 7.0625 -13.125 7.46875 -12.90625 C 7.875 -12.695312 8.457031 -12.59375 9.21875 -12.59375 L 12.96875 -12.59375 C 14.15625 -12.59375 14.929688 -12.816406 15.296875 -13.265625 C 15.660156 -13.722656 15.921875 -14.382812 16.078125 -15.25 L 16.6875 -15.25 L 16.6875 -8.6875 L 16.078125 -8.6875 C 15.921875 -9.519531 15.660156 -10.175781 15.296875 -10.65625 C 14.929688 -11.132812 14.15625 -11.375 12.96875 -11.375 L 9.21875 -11.375 C 8.457031 -11.375 7.875 -11.265625 7.46875 -11.046875 C 7.0625 -10.835938 6.859375 -10.40625 6.859375 -9.75 L 6.859375 -2.875 C 6.859375 -2.21875 7.101562 -1.773438 7.59375 -1.546875 C 8.09375 -1.328125 9.035156 -1.226562 10.421875 -1.25 L 14.796875 -1.296875 C 16.179688 -1.316406 17.144531 -1.507812 17.6875 -1.875 C 18.226562 -2.238281 18.65625 -2.675781 18.96875 -3.1875 L 19.875 -4.59375 L 20.625 -4.59375 C 20.351562 -4.03125 20.128906 -3.453125 19.953125 -2.859375 C 19.773438 -2.265625 19.617188 -1.488281 19.484375 -0.53125 C 19.441406 -0.175781 19.242188 0 18.890625 0 Z M 1.140625 0 "/></g></g></g><g fill="#ac7e28" fill-opacity="1"><g transform="translate(160.34488, 234.836272)"><g><path d="M 22.71875 -4.515625 C 23.09375 -3.628906 23.425781 -2.925781 23.71875 -2.40625 C 24.007812 -1.882812 24.347656 -1.507812 24.734375 -1.28125 C 25.128906 -1.0625 25.644531 -0.898438 26.28125 -0.796875 L 26.28125 0 L 17.75 0 L 17.75 -0.796875 C 18.9375 -0.992188 19.59375 -1.28125 19.71875 -1.65625 C 19.84375 -2.039062 19.753906 -2.601562 19.453125 -3.34375 L 18.3125 -5.984375 C 18.0625 -6.441406 17.765625 -6.753906 17.421875 -6.921875 C 17.078125 -7.085938 16.65625 -7.171875 16.15625 -7.171875 L 8.796875 -7.171875 C 8.242188 -7.171875 7.78125 -7.070312 7.40625 -6.875 C 7.039062 -6.6875 6.734375 -6.300781 6.484375 -5.71875 L 6.71875 -6.25 L 5.53125 -3.53125 C 5.207031 -2.695312 5.257812 -2.0625 5.6875 -1.625 C 6.113281 -1.195312 6.875 -0.921875 7.96875 -0.796875 L 7.96875 0 L 0.765625 0 L 0.765625 -0.796875 C 1.640625 -0.972656 2.316406 -1.253906 2.796875 -1.640625 C 3.285156 -2.035156 3.734375 -2.675781 4.140625 -3.5625 L 11.453125 -20.671875 C 11.753906 -21.378906 11.953125 -21.945312 12.046875 -22.375 C 12.148438 -22.800781 12.203125 -23.191406 12.203125 -23.546875 L 14.375 -23.78125 Z M 16.3125 -8.34375 C 16.5625 -8.34375 16.75 -8.421875 16.875 -8.578125 C 17 -8.742188 17 -8.992188 16.875 -9.328125 L 17.515625 -7.84375 L 12.8125 -18.8125 C 12.664062 -19.132812 12.535156 -19.296875 12.421875 -19.296875 C 12.304688 -19.296875 12.1875 -19.117188 12.0625 -18.765625 L 7.890625 -8.984375 C 7.816406 -8.554688 8.046875 -8.34375 8.578125 -8.34375 Z M 7.96875 -9.296875 C 7.96875 -9.296875 7.96875 -9.285156 7.96875 -9.265625 C 7.96875 -9.253906 7.953125 -9.25 7.921875 -9.25 Z M 7.96875 -9.296875 "/></g></g></g><g fill="#ac7e28" fill-opacity="1"><g transform="translate(189.083108, 234.836272)"><g><path d="M 12.546875 0 L 4.328125 -19.03125 C 3.941406 -19.945312 3.597656 -20.65625 3.296875 -21.15625 C 2.992188 -21.664062 2.660156 -22.039062 2.296875 -22.28125 C 1.929688 -22.519531 1.421875 -22.675781 0.765625 -22.75 L 0.765625 -23.546875 L 9.296875 -23.546875 L 9.296875 -22.796875 C 8.109375 -22.585938 7.441406 -22.285156 7.296875 -21.890625 C 7.160156 -21.503906 7.253906 -20.945312 7.578125 -20.21875 L 14.21875 -4.734375 C 14.375 -4.410156 14.507812 -4.253906 14.625 -4.265625 C 14.738281 -4.273438 14.859375 -4.445312 14.984375 -4.78125 L 21.46875 -20.015625 C 21.820312 -20.859375 21.789062 -21.492188 21.375 -21.921875 C 20.957031 -22.347656 20.191406 -22.640625 19.078125 -22.796875 L 19.078125 -23.546875 L 26.28125 -23.546875 L 26.28125 -22.796875 C 25.375 -22.617188 24.675781 -22.332031 24.1875 -21.9375 C 23.707031 -21.539062 23.28125 -20.898438 22.90625 -20.015625 L 15.578125 -2.921875 C 15.273438 -2.210938 15.070312 -1.632812 14.96875 -1.1875 C 14.875 -0.75 14.828125 -0.351562 14.828125 0 Z M 12.546875 0 "/></g></g></g><g fill="#ac7e28" fill-opacity="1"><g transform="translate(217.821335, 234.836272)"><g><path d="M 1.140625 0 L 1.140625 -0.796875 C 1.898438 -0.921875 2.46875 -1.097656 2.84375 -1.328125 C 3.21875 -1.554688 3.40625 -2.023438 3.40625 -2.734375 L 3.40625 -20.8125 C 3.40625 -21.519531 3.21875 -21.988281 2.84375 -22.21875 C 2.46875 -22.445312 1.898438 -22.640625 1.140625 -22.796875 L 1.140625 -23.546875 L 18.359375 -23.546875 C 18.710938 -23.546875 18.898438 -23.394531 18.921875 -23.09375 C 18.972656 -22.613281 19.046875 -22.054688 19.140625 -21.421875 C 19.242188 -20.796875 19.425781 -19.976562 19.6875 -18.96875 L 18.96875 -18.96875 C 18.507812 -20.101562 17.898438 -20.945312 17.140625 -21.5 C 16.378906 -22.0625 15.351562 -22.34375 14.0625 -22.34375 L 9.21875 -22.34375 C 8.457031 -22.34375 7.875 -22.234375 7.46875 -22.015625 C 7.0625 -21.796875 6.859375 -21.359375 6.859375 -20.703125 L 6.859375 -14.21875 C 6.859375 -13.5625 7.0625 -13.125 7.46875 -12.90625 C 7.875 -12.695312 8.457031 -12.59375 9.21875 -12.59375 L 12.96875 -12.59375 C 14.15625 -12.59375 14.929688 -12.816406 15.296875 -13.265625 C 15.660156 -13.722656 15.921875 -14.382812 16.078125 -15.25 L 16.6875 -15.25 L 16.6875 -8.6875 L 16.078125 -8.6875 C 15.921875 -9.519531 15.660156 -10.175781 15.296875 -10.65625 C 14.929688 -11.132812 14.15625 -11.375 12.96875 -11.375 L 9.21875 -11.375 C 8.457031 -11.375 7.875 -11.265625 7.46875 -11.046875 C 7.0625 -10.835938 6.859375 -10.40625 6.859375 -9.75 L 6.859375 -2.875 C 6.859375 -2.21875 7.101562 -1.773438 7.59375 -1.546875 C 8.09375 -1.328125 9.035156 -1.226562 10.421875 -1.25 L 14.796875 -1.296875 C 16.179688 -1.316406 17.144531 -1.507812 17.6875 -1.875 C 18.226562 -2.238281 18.65625 -2.675781 18.96875 -3.1875 L 19.875 -4.59375 L 20.625 -4.59375 C 20.351562 -4.03125 20.128906 -3.453125 19.953125 -2.859375 C 19.773438 -2.265625 19.617188 -1.488281 19.484375 -0.53125 C 19.441406 -0.175781 19.242188 0 18.890625 0 Z M 1.140625 0 "/></g></g></g><g fill="#ac7e28" fill-opacity="1"><g transform="translate(240.910528, 234.836272)"><g><path d="M 17.671875 -23.546875 L 23.59375 -23.546875 L 23.59375 -22.796875 C 22.832031 -22.640625 22.253906 -22.445312 21.859375 -22.21875 C 21.472656 -21.988281 21.28125 -21.519531 21.28125 -20.8125 L 21.28125 0 L 19.953125 0 L 4.8125 -19.828125 L 4.8125 -2.734375 C 4.8125 -2.023438 4.992188 -1.554688 5.359375 -1.328125 C 5.734375 -1.097656 6.285156 -0.921875 7.015625 -0.796875 L 7.015625 0 L 1.140625 0 L 1.140625 -0.796875 C 1.898438 -0.921875 2.46875 -1.097656 2.84375 -1.328125 C 3.21875 -1.554688 3.40625 -2.023438 3.40625 -2.734375 L 3.40625 -20.8125 C 3.40625 -21.519531 3.21875 -21.988281 2.84375 -22.21875 C 2.46875 -22.445312 1.898438 -22.640625 1.140625 -22.796875 L 1.140625 -23.546875 L 6.109375 -23.546875 L 19.90625 -5.453125 L 19.90625 -20.8125 C 19.90625 -21.519531 19.710938 -21.988281 19.328125 -22.21875 C 18.953125 -22.445312 18.398438 -22.640625 17.671875 -22.796875 Z M 17.671875 -23.546875 "/></g></g></g><g fill="#000000" fill-opacity="1"><g transform="translate(99.378836, 260.955314)"><g><path d="M 5.875 -1.796875 L 7.1875 -6.515625 L 7.234375 -6.6875 L 8.3125 -6.6875 L 8.21875 -6.390625 L 6.328125 0.0625 L 6.28125 0.234375 L 5.375 0.234375 L 5.328125 0.0625 L 4.140625 -4.59375 L 2.859375 0.0625 L 2.8125 0.234375 L 1.890625 0.234375 L 1.84375 0.0625 L 0.1875 -6.390625 L 0.125 -6.6875 L 1.171875 -6.6875 L 1.21875 -6.515625 L 2.40625 -1.828125 L 3.703125 -6.515625 L 3.75 -6.6875 L 4.609375 -6.6875 L 4.65625 -6.515625 Z M 5.875 -1.796875 "/></g></g></g><g fill="#000000" fill-opacity="1"><g transform="translate(110.437344, 260.955314)"><g><path d="M 4.046875 -5.671875 L 1.59375 -5.671875 L 1.59375 -3.703125 L 4.109375 -3.703125 L 4.078125 -3.453125 L 4.03125 -2.90625 L 4.015625 -2.6875 L 1.59375 -2.6875 L 1.59375 -0.78125 L 4.53125 -0.78125 L 4.515625 -0.53125 L 4.46875 0.015625 L 4.4375 0.234375 L 0.5 0.234375 L 0.5 -6.6875 L 4.34375 -6.6875 L 4.328125 -6.4375 L 4.28125 -5.875 L 4.265625 -5.671875 Z M 4.046875 -5.671875 "/></g></g></g><g fill="#000000" fill-opacity="1"><g transform="translate(117.631368, 260.955314)"><g/></g></g><g fill="#000000" fill-opacity="1"><g transform="translate(122.934649, 260.955314)"><g><path d="M 3.3125 -6.71875 C 4.289062 -6.71875 5.023438 -6.414062 5.515625 -5.8125 C 6.015625 -5.207031 6.265625 -4.335938 6.265625 -3.203125 C 6.265625 -2.140625 5.988281 -1.300781 5.4375 -0.6875 C 4.875 -0.0507812 4.164062 0.265625 3.3125 0.265625 C 2.425781 0.265625 1.726562 0.015625 1.21875 -0.484375 C 0.65625 -1.066406 0.375 -1.9375 0.375 -3.09375 C 0.375 -4.226562 0.648438 -5.117188 1.203125 -5.765625 C 1.773438 -6.398438 2.476562 -6.71875 3.3125 -6.71875 Z M 2.015625 -1.25 C 2.304688 -0.914062 2.738281 -0.75 3.3125 -0.75 C 3.851562 -0.75 4.296875 -0.957031 4.640625 -1.375 C 5.003906 -1.820312 5.1875 -2.46875 5.1875 -3.3125 C 5.1875 -4.15625 5 -4.785156 4.625 -5.203125 C 4.320312 -5.535156 3.882812 -5.703125 3.3125 -5.703125 C 3.039062 -5.703125 2.796875 -5.648438 2.578125 -5.546875 C 2.367188 -5.441406 2.175781 -5.28125 2 -5.0625 C 1.632812 -4.613281 1.453125 -3.960938 1.453125 -3.109375 C 1.453125 -2.691406 1.5 -2.328125 1.59375 -2.015625 C 1.695312 -1.703125 1.835938 -1.445312 2.015625 -1.25 Z M 2.015625 -1.25 "/></g></g></g><g fill="#000000" fill-opacity="1"><g transform="translate(132.120861, 260.955314)"><g><path d="M 4.6875 0.125 L 1.4375 -4.84375 L 1.46875 0 L 1.46875 0.234375 L 0.4375 0.234375 L 0.4375 -6.6875 L 1.46875 -6.6875 L 1.53125 -6.578125 L 4.765625 -1.609375 L 4.734375 -6.453125 L 4.734375 -6.6875 L 5.78125 -6.6875 L 5.78125 0.234375 L 4.75 0.234375 Z M 4.6875 0.125 "/></g></g></g><g fill="#000000" fill-opacity="1"><g transform="translate(140.89203, 260.955314)"><g><path d="M 4.234375 0.234375 L 0.5 0.234375 L 0.5 -6.6875 L 1.59375 -6.6875 L 1.59375 -0.78125 L 4.53125 -0.78125 L 4.515625 -0.53125 L 4.46875 0.015625 L 4.4375 0.234375 Z M 4.234375 0.234375 "/></g></g></g><g fill="#000000" fill-opacity="1"><g transform="translate(148.132167, 260.955314)"><g><path d="M 3.078125 -3.1875 L 4.78125 -6.546875 L 4.84375 -6.6875 L 6.015625 -6.6875 L 5.828125 -6.34375 L 3.609375 -2.109375 L 3.609375 0.234375 L 2.5625 0.234375 L 2.5625 -2.125 L 0.21875 -6.34375 L 0.015625 -6.6875 L 1.21875 -6.6875 L 1.296875 -6.5625 Z M 3.078125 -3.1875 "/></g></g></g><g fill="#000000" fill-opacity="1"><g transform="translate(156.728103, 260.955314)"><g/></g></g><g fill="#000000" fill-opacity="1"><g transform="translate(162.03138, 260.955314)"><g><path d="M 4.515625 -6.234375 L 4.40625 -5.71875 L 4.359375 -5.484375 L 4.140625 -5.546875 C 3.679688 -5.640625 3.296875 -5.6875 2.984375 -5.6875 C 2.421875 -5.6875 2.019531 -5.613281 1.78125 -5.46875 C 1.539062 -5.320312 1.421875 -5.109375 1.421875 -4.828125 C 1.421875 -4.628906 1.484375 -4.476562 1.609375 -4.375 C 1.753906 -4.238281 1.945312 -4.128906 2.1875 -4.046875 C 2.320312 -4.003906 2.457031 -3.960938 2.59375 -3.921875 C 2.738281 -3.878906 2.882812 -3.835938 3.03125 -3.796875 C 3.351562 -3.710938 3.65625 -3.601562 3.9375 -3.46875 C 4.164062 -3.351562 4.359375 -3.21875 4.515625 -3.0625 C 4.671875 -2.90625 4.789062 -2.722656 4.875 -2.515625 C 4.957031 -2.316406 5 -2.097656 5 -1.859375 C 5 -1.617188 4.96875 -1.398438 4.90625 -1.203125 C 4.84375 -1.003906 4.75 -0.820312 4.625 -0.65625 C 4.507812 -0.488281 4.363281 -0.34375 4.1875 -0.21875 C 3.738281 0.0820312 3.160156 0.234375 2.453125 0.234375 C 1.578125 0.234375 0.835938 0.0351562 0.234375 -0.359375 L 0.078125 -0.46875 L 0.40625 -1.125 L 0.53125 -1.359375 L 0.734375 -1.203125 C 0.878906 -1.109375 1.097656 -1.007812 1.390625 -0.90625 C 1.671875 -0.820312 1.945312 -0.78125 2.21875 -0.78125 C 2.738281 -0.78125 3.144531 -0.859375 3.4375 -1.015625 C 3.75 -1.203125 3.90625 -1.460938 3.90625 -1.796875 C 3.90625 -2.046875 3.84375 -2.238281 3.71875 -2.375 C 3.5625 -2.519531 3.363281 -2.640625 3.125 -2.734375 C 2.863281 -2.835938 2.585938 -2.925781 2.296875 -3 C 1.972656 -3.082031 1.675781 -3.1875 1.40625 -3.3125 C 0.6875 -3.625 0.328125 -4.097656 0.328125 -4.734375 C 0.328125 -5.335938 0.539062 -5.816406 0.96875 -6.171875 C 1.375 -6.523438 1.945312 -6.703125 2.6875 -6.703125 C 2.78125 -6.703125 2.867188 -6.695312 2.953125 -6.6875 C 3.046875 -6.6875 3.132812 -6.679688 3.21875 -6.671875 C 3.3125 -6.671875 3.40625 -6.664062 3.5 -6.65625 C 3.59375 -6.644531 3.6875 -6.628906 3.78125 -6.609375 C 3.875 -6.597656 3.96875 -6.582031 4.0625 -6.5625 C 4.15625 -6.550781 4.25 -6.535156 4.34375 -6.515625 L 4.578125 -6.46875 Z M 4.515625 -6.234375 "/></g></g></g><g fill="#000000" fill-opacity="1"><g transform="translate(169.714225, 260.955314)"><g><path d="M 4.046875 -5.671875 L 1.59375 -5.671875 L 1.59375 -3.703125 L 4.109375 -3.703125 L 4.078125 -3.453125 L 4.03125 -2.90625 L 4.015625 -2.6875 L 1.59375 -2.6875 L 1.59375 -0.78125 L 4.53125 -0.78125 L 4.515625 -0.53125 L 4.46875 0.015625 L 4.4375 0.234375 L 0.5 0.234375 L 0.5 -6.6875 L 4.34375 -6.6875 L 4.328125 -6.4375 L 4.28125 -5.875 L 4.265625 -5.671875 Z M 4.046875 -5.671875 "/></g></g></g><g fill="#000000" fill-opacity="1"><g transform="translate(176.908246, 260.955314)"><g><path d="M 4.53125 -4.71875 C 4.53125 -3.84375 4.25 -3.21875 3.6875 -2.84375 L 5 -0.09375 L 5.140625 0.234375 L 3.96875 0.234375 L 3.90625 0.09375 L 2.671875 -2.5 C 2.578125 -2.488281 2.476562 -2.476562 2.375 -2.46875 C 2.28125 -2.46875 2.179688 -2.46875 2.078125 -2.46875 L 1.59375 -2.46875 L 1.59375 0.234375 L 0.5 0.234375 L 0.5 -6.6875 L 2.078125 -6.6875 C 2.867188 -6.6875 3.457031 -6.554688 3.84375 -6.296875 C 4.300781 -5.984375 4.53125 -5.457031 4.53125 -4.71875 Z M 1.59375 -5.71875 L 1.59375 -3.421875 L 2.03125 -3.421875 C 2.519531 -3.421875 2.878906 -3.519531 3.109375 -3.71875 C 3.335938 -3.882812 3.453125 -4.207031 3.453125 -4.6875 C 3.453125 -4.882812 3.421875 -5.050781 3.359375 -5.1875 C 3.304688 -5.320312 3.222656 -5.425781 3.109375 -5.5 C 3.003906 -5.582031 2.863281 -5.640625 2.6875 -5.671875 C 2.582031 -5.691406 2.476562 -5.703125 2.375 -5.703125 C 2.269531 -5.710938 2.15625 -5.71875 2.03125 -5.71875 Z M 1.59375 -5.71875 "/></g></g></g><g fill="#000000" fill-opacity="1"><g transform="translate(184.655651, 260.955314)"><g><path d="M 3.125 -1.390625 L 4.859375 -6.53125 L 4.90625 -6.6875 L 6 -6.6875 L 5.90625 -6.375 L 3.609375 0.078125 L 3.5625 0.234375 L 2.625 0.234375 L 2.578125 0.078125 L 0.203125 -6.375 L 0.078125 -6.6875 L 1.203125 -6.6875 L 1.25 -6.53125 Z M 3.125 -1.390625 "/></g></g></g><g fill="#000000" fill-opacity="1"><g transform="translate(193.325372, 260.955314)"><g><path d="M 4.046875 -5.671875 L 1.59375 -5.671875 L 1.59375 -3.703125 L 4.109375 -3.703125 L 4.078125 -3.453125 L 4.03125 -2.90625 L 4.015625 -2.6875 L 1.59375 -2.6875 L 1.59375 -0.78125 L 4.53125 -0.78125 L 4.515625 -0.53125 L 4.46875 0.015625 L 4.4375 0.234375 L 0.5 0.234375 L 0.5 -6.6875 L 4.34375 -6.6875 L 4.328125 -6.4375 L 4.28125 -5.875 L 4.265625 -5.671875 Z M 4.046875 -5.671875 "/></g></g></g><g fill="#000000" fill-opacity="1"><g transform="translate(200.519393, 260.955314)"><g/></g></g><g fill="#000000" fill-opacity="1"><g transform="translate(205.82267, 260.955314)"><g><path d="M 2.015625 0 L 2.015625 -5.671875 L 0.171875 -5.671875 L 0.1875 -5.921875 L 0.234375 -6.46875 L 0.25 -6.6875 L 4.890625 -6.6875 L 4.875 -6.4375 L 4.828125 -5.875 L 4.796875 -5.671875 L 3.046875 -5.671875 L 3.046875 0.234375 L 2.015625 0.234375 Z M 2.015625 0 "/></g></g></g><g fill="#000000" fill-opacity="1"><g transform="translate(213.422506, 260.955314)"><g><path d="M 0.453125 0 L 0.453125 -6.6875 L 1.5 -6.6875 L 1.5 -3.703125 L 4.171875 -3.703125 L 4.171875 -6.6875 L 5.21875 -6.6875 L 5.21875 0.234375 L 4.171875 0.234375 L 4.171875 -2.6875 L 1.5 -2.6875 L 1.5 0.234375 L 0.453125 0.234375 Z M 0.453125 0 "/></g></g></g><g fill="#000000" fill-opacity="1"><g transform="translate(221.649517, 260.955314)"><g><path d="M 4.046875 -5.671875 L 1.59375 -5.671875 L 1.59375 -3.703125 L 4.109375 -3.703125 L 4.078125 -3.453125 L 4.03125 -2.90625 L 4.015625 -2.6875 L 1.59375 -2.6875 L 1.59375 -0.78125 L 4.53125 -0.78125 L 4.515625 -0.53125 L 4.46875 0.015625 L 4.4375 0.234375 L 0.5 0.234375 L 0.5 -6.6875 L 4.34375 -6.6875 L 4.328125 -6.4375 L 4.28125 -5.875 L 4.265625 -5.671875 Z M 4.046875 -5.671875 "/></g></g></g><g fill="#000000" fill-opacity="1"><g transform="translate(228.843538, 260.955314)"><g/></g></g><g fill="#000000" fill-opacity="1"><g transform="translate(234.146815, 260.955314)"><g><path d="M 4.046875 -5.671875 L 1.59375 -5.671875 L 1.59375 -3.703125 L 4.109375 -3.703125 L 4.078125 -3.453125 L 4.03125 -2.90625 L 4.015625 -2.6875 L 1.59375 -2.6875 L 1.59375 0.234375 L 0.5 0.234375 L 0.5 -6.6875 L 4.34375 -6.6875 L 4.328125 -6.4375 L 4.28125 -5.875 L 4.265625 -5.671875 Z M 4.046875 -5.671875 "/></g></g></g><g fill="#000000" fill-opacity="1"><g transform="translate(241.156371, 260.955314)"><g><path d="M 2.375 0.234375 L 0.421875 0.234375 L 0.421875 -0.640625 L 0.625 -0.671875 L 0.96875 -0.703125 L 0.96875 -5.734375 L 0.65625 -5.765625 L 0.453125 -5.796875 L 0.453125 -6.6875 L 2.5625 -6.6875 L 2.5625 -5.796875 L 2.359375 -5.765625 L 2.0625 -5.734375 L 2.0625 -0.703125 L 2.40625 -0.671875 L 2.609375 -0.640625 L 2.609375 0.234375 Z M 2.375 0.234375 "/></g></g></g><g fill="#000000" fill-opacity="1"><g transform="translate(246.911576, 260.955314)"><g><path d="M 4.6875 0.125 L 1.4375 -4.84375 L 1.46875 0 L 1.46875 0.234375 L 0.4375 0.234375 L 0.4375 -6.6875 L 1.46875 -6.6875 L 1.53125 -6.578125 L 4.765625 -1.609375 L 4.734375 -6.453125 L 4.734375 -6.6875 L 5.78125 -6.6875 L 5.78125 0.234375 L 4.75 0.234375 Z M 4.6875 0.125 "/></g></g></g><g fill="#000000" fill-opacity="1"><g transform="translate(255.682742, 260.955314)"><g><path d="M 4.046875 -5.671875 L 1.59375 -5.671875 L 1.59375 -3.703125 L 4.109375 -3.703125 L 4.078125 -3.453125 L 4.03125 -2.90625 L 4.015625 -2.6875 L 1.59375 -2.6875 L 1.59375 -0.78125 L 4.53125 -0.78125 L 4.515625 -0.53125 L 4.46875 0.015625 L 4.4375 0.234375 L 0.5 0.234375 L 0.5 -6.6875 L 4.34375 -6.6875 L 4.328125 -6.4375 L 4.28125 -5.875 L 4.265625 -5.671875 Z M 4.046875 -5.671875 "/></g></g></g><g fill="#000000" fill-opacity="1"><g transform="translate(262.876763, 260.955314)"><g><path d="M 4.515625 -6.234375 L 4.40625 -5.71875 L 4.359375 -5.484375 L 4.140625 -5.546875 C 3.679688 -5.640625 3.296875 -5.6875 2.984375 -5.6875 C 2.421875 -5.6875 2.019531 -5.613281 1.78125 -5.46875 C 1.539062 -5.320312 1.421875 -5.109375 1.421875 -4.828125 C 1.421875 -4.628906 1.484375 -4.476562 1.609375 -4.375 C 1.753906 -4.238281 1.945312 -4.128906 2.1875 -4.046875 C 2.320312 -4.003906 2.457031 -3.960938 2.59375 -3.921875 C 2.738281 -3.878906 2.882812 -3.835938 3.03125 -3.796875 C 3.351562 -3.710938 3.65625 -3.601562 3.9375 -3.46875 C 4.164062 -3.351562 4.359375 -3.21875 4.515625 -3.0625 C 4.671875 -2.90625 4.789062 -2.722656 4.875 -2.515625 C 4.957031 -2.316406 5 -2.097656 5 -1.859375 C 5 -1.617188 4.96875 -1.398438 4.90625 -1.203125 C 4.84375 -1.003906 4.75 -0.820312 4.625 -0.65625 C 4.507812 -0.488281 4.363281 -0.34375 4.1875 -0.21875 C 3.738281 0.0820312 3.160156 0.234375 2.453125 0.234375 C 1.578125 0.234375 0.835938 0.0351562 0.234375 -0.359375 L 0.078125 -0.46875 L 0.40625 -1.125 L 0.53125 -1.359375 L 0.734375 -1.203125 C 0.878906 -1.109375 1.097656 -1.007812 1.390625 -0.90625 C 1.671875 -0.820312 1.945312 -0.78125 2.21875 -0.78125 C 2.738281 -0.78125 3.144531 -0.859375 3.4375 -1.015625 C 3.75 -1.203125 3.90625 -1.460938 3.90625 -1.796875 C 3.90625 -2.046875 3.84375 -2.238281 3.71875 -2.375 C 3.5625 -2.519531 3.363281 -2.640625 3.125 -2.734375 C 2.863281 -2.835938 2.585938 -2.925781 2.296875 -3 C 1.972656 -3.082031 1.675781 -3.1875 1.40625 -3.3125 C 0.6875 -3.625 0.328125 -4.097656 0.328125 -4.734375 C 0.328125 -5.335938 0.539062 -5.816406 0.96875 -6.171875 C 1.375 -6.523438 1.945312 -6.703125 2.6875 -6.703125 C 2.78125 -6.703125 2.867188 -6.695312 2.953125 -6.6875 C 3.046875 -6.6875 3.132812 -6.679688 3.21875 -6.671875 C 3.3125 -6.671875 3.40625 -6.664062 3.5 -6.65625 C 3.59375 -6.644531 3.6875 -6.628906 3.78125 -6.609375 C 3.875 -6.597656 3.96875 -6.582031 4.0625 -6.5625 C 4.15625 -6.550781 4.25 -6.535156 4.34375 -6.515625 L 4.578125 -6.46875 Z M 4.515625 -6.234375 "/></g></g></g><g fill="#000000" fill-opacity="1"><g transform="translate(270.559607, 260.955314)"><g><path d="M 2.015625 0 L 2.015625 -5.671875 L 0.171875 -5.671875 L 0.1875 -5.921875 L 0.234375 -6.46875 L 0.25 -6.6875 L 4.890625 -6.6875 L 4.875 -6.4375 L 4.828125 -5.875 L 4.796875 -5.671875 L 3.046875 -5.671875 L 3.046875 0.234375 L 2.015625 0.234375 Z M 2.015625 0 "/></g></g></g><g fill="#000000" fill-opacity="1"><g transform="translate(114.312496, 152.850218)"><g><path d="M 4.046875 -5.671875 L 1.59375 -5.671875 L 1.59375 -3.703125 L 4.109375 -3.703125 L 4.078125 -3.453125 L 4.03125 -2.90625 L 4.015625 -2.6875 L 1.59375 -2.6875 L 1.59375 -0.78125 L 4.53125 -0.78125 L 4.515625 -0.53125 L 4.46875 0.015625 L 4.4375 0.234375 L 0.5 0.234375 L 0.5 -6.6875 L 4.34375 -6.6875 L 4.328125 -6.4375 L 4.28125 -5.875 L 4.265625 -5.671875 Z M 4.046875 -5.671875 "/></g></g></g><g fill="#000000" fill-opacity="1"><g transform="translate(124.28266, 152.850218)"><g><path d="M 4.515625 -6.234375 L 4.40625 -5.71875 L 4.359375 -5.484375 L 4.140625 -5.546875 C 3.679688 -5.640625 3.296875 -5.6875 2.984375 -5.6875 C 2.421875 -5.6875 2.019531 -5.613281 1.78125 -5.46875 C 1.539062 -5.320312 1.421875 -5.109375 1.421875 -4.828125 C 1.421875 -4.628906 1.484375 -4.476562 1.609375 -4.375 C 1.753906 -4.238281 1.945312 -4.128906 2.1875 -4.046875 C 2.320312 -4.003906 2.457031 -3.960938 2.59375 -3.921875 C 2.738281 -3.878906 2.882812 -3.835938 3.03125 -3.796875 C 3.351562 -3.710938 3.65625 -3.601562 3.9375 -3.46875 C 4.164062 -3.351562 4.359375 -3.21875 4.515625 -3.0625 C 4.671875 -2.90625 4.789062 -2.722656 4.875 -2.515625 C 4.957031 -2.316406 5 -2.097656 5 -1.859375 C 5 -1.617188 4.96875 -1.398438 4.90625 -1.203125 C 4.84375 -1.003906 4.75 -0.820312 4.625 -0.65625 C 4.507812 -0.488281 4.363281 -0.34375 4.1875 -0.21875 C 3.738281 0.0820312 3.160156 0.234375 2.453125 0.234375 C 1.578125 0.234375 0.835938 0.0351562 0.234375 -0.359375 L 0.078125 -0.46875 L 0.40625 -1.125 L 0.53125 -1.359375 L 0.734375 -1.203125 C 0.878906 -1.109375 1.097656 -1.007812 1.390625 -0.90625 C 1.671875 -0.820312 1.945312 -0.78125 2.21875 -0.78125 C 2.738281 -0.78125 3.144531 -0.859375 3.4375 -1.015625 C 3.75 -1.203125 3.90625 -1.460938 3.90625 -1.796875 C 3.90625 -2.046875 3.84375 -2.238281 3.71875 -2.375 C 3.5625 -2.519531 3.363281 -2.640625 3.125 -2.734375 C 2.863281 -2.835938 2.585938 -2.925781 2.296875 -3 C 1.972656 -3.082031 1.675781 -3.1875 1.40625 -3.3125 C 0.6875 -3.625 0.328125 -4.097656 0.328125 -4.734375 C 0.328125 -5.335938 0.539062 -5.816406 0.96875 -6.171875 C 1.375 -6.523438 1.945312 -6.703125 2.6875 -6.703125 C 2.78125 -6.703125 2.867188 -6.695312 2.953125 -6.6875 C 3.046875 -6.6875 3.132812 -6.679688 3.21875 -6.671875 C 3.3125 -6.671875 3.40625 -6.664062 3.5 -6.65625 C 3.59375 -6.644531 3.6875 -6.628906 3.78125 -6.609375 C 3.875 -6.597656 3.96875 -6.582031 4.0625 -6.5625 C 4.15625 -6.550781 4.25 -6.535156 4.34375 -6.515625 L 4.578125 -6.46875 Z M 4.515625 -6.234375 "/></g></g></g><g fill="#000000" fill-opacity="1"><g transform="translate(134.741648, 152.850218)"><g><path d="M 2.015625 0 L 2.015625 -5.671875 L 0.171875 -5.671875 L 0.1875 -5.921875 L 0.234375 -6.46875 L 0.25 -6.6875 L 4.890625 -6.6875 L 4.875 -6.4375 L 4.828125 -5.875 L 4.796875 -5.671875 L 3.046875 -5.671875 L 3.046875 0.234375 L 2.015625 0.234375 Z M 2.015625 0 "/></g></g></g><g fill="#000000" fill-opacity="1"><g transform="translate(145.117626, 152.850218)"><g><path d="M 0.734375 -6.6875 L 2.390625 -6.6875 C 3.078125 -6.6875 3.65625 -6.535156 4.125 -6.234375 C 4.59375 -5.941406 4.929688 -5.5 5.140625 -4.90625 C 5.296875 -4.488281 5.375 -3.945312 5.375 -3.28125 C 5.375 -2.945312 5.351562 -2.640625 5.3125 -2.359375 C 5.28125 -2.078125 5.226562 -1.816406 5.15625 -1.578125 C 5.113281 -1.460938 5.066406 -1.351562 5.015625 -1.25 C 4.972656 -1.144531 4.925781 -1.046875 4.875 -0.953125 C 4.820312 -0.859375 4.757812 -0.769531 4.6875 -0.6875 C 4.625 -0.601562 4.554688 -0.523438 4.484375 -0.453125 C 4.203125 -0.179688 3.859375 0 3.453125 0.09375 C 3.066406 0.1875 2.640625 0.234375 2.171875 0.234375 L 0.5 0.234375 L 0.5 -6.6875 Z M 1.59375 -5.71875 L 1.59375 -0.734375 L 2.125 -0.734375 C 2.425781 -0.734375 2.71875 -0.765625 3 -0.828125 C 3.851562 -0.972656 4.28125 -1.804688 4.28125 -3.328125 C 4.28125 -4.191406 4.085938 -4.820312 3.703125 -5.21875 C 3.378906 -5.550781 2.925781 -5.71875 2.34375 -5.71875 Z M 1.59375 -5.71875 "/></g></g></g><g fill="#000000" fill-opacity="1"><g transform="translate(224.125406, 152.850218)"><g><path d="M 2.6875 -5.390625 C 2.320312 -5.390625 1.875 -5.257812 1.34375 -5 L 1.140625 -4.90625 L 1.046875 -5.109375 L 0.8125 -5.546875 L 0.703125 -5.75 L 0.90625 -5.859375 C 0.925781 -5.867188 0.953125 -5.878906 0.984375 -5.890625 C 1.015625 -5.910156 1.046875 -5.925781 1.078125 -5.9375 C 1.109375 -5.957031 1.140625 -5.972656 1.171875 -5.984375 C 1.203125 -6.003906 1.238281 -6.019531 1.28125 -6.03125 C 1.320312 -6.050781 1.363281 -6.066406 1.40625 -6.078125 C 1.445312 -6.097656 1.488281 -6.113281 1.53125 -6.125 C 1.570312 -6.144531 1.617188 -6.164062 1.671875 -6.1875 C 2.015625 -6.3125 2.335938 -6.375 2.640625 -6.375 C 3.253906 -6.375 3.726562 -6.238281 4.0625 -5.96875 C 4.5 -5.632812 4.71875 -5.140625 4.71875 -4.484375 C 4.71875 -4.066406 4.617188 -3.664062 4.421875 -3.28125 C 4.234375 -2.914062 3.992188 -2.5625 3.703125 -2.21875 C 3.421875 -1.882812 3.109375 -1.5625 2.765625 -1.25 C 2.578125 -1.070312 2.394531 -0.898438 2.21875 -0.734375 L 4.84375 -0.734375 L 4.875 -0.53125 L 4.921875 -0.03125 L 4.953125 0.234375 L 0.75 0.234375 L 0.703125 0.046875 L 0.65625 -0.21875 L 0.59375 -0.453125 L 0.578125 -0.578125 L 0.671875 -0.671875 C 1.128906 -1.117188 1.546875 -1.519531 1.921875 -1.875 C 2.046875 -2 2.160156 -2.117188 2.265625 -2.234375 C 2.378906 -2.347656 2.484375 -2.457031 2.578125 -2.5625 C 2.679688 -2.675781 2.773438 -2.785156 2.859375 -2.890625 C 2.984375 -3.035156 3.09375 -3.179688 3.1875 -3.328125 C 3.289062 -3.472656 3.378906 -3.613281 3.453125 -3.75 C 3.515625 -3.875 3.5625 -4 3.59375 -4.125 C 3.625 -4.25 3.640625 -4.378906 3.640625 -4.515625 C 3.640625 -4.878906 3.492188 -5.140625 3.203125 -5.296875 C 3.078125 -5.359375 2.90625 -5.390625 2.6875 -5.390625 Z M 2.6875 -5.390625 "/></g></g></g><g fill="#000000" fill-opacity="1"><g transform="translate(234.722734, 152.850218)"><g><path d="M 2.140625 -1.21875 C 2.273438 -1.039062 2.429688 -0.910156 2.609375 -0.828125 C 2.796875 -0.742188 3 -0.703125 3.21875 -0.703125 C 3.644531 -0.703125 4.015625 -0.910156 4.328125 -1.328125 C 4.648438 -1.765625 4.8125 -2.382812 4.8125 -3.1875 C 4.8125 -3.976562 4.660156 -4.578125 4.359375 -4.984375 C 3.898438 -5.335938 3.515625 -5.546875 3.203125 -5.609375 C 2.785156 -5.597656 2.425781 -5.382812 2.125 -4.96875 C 1.800781 -4.53125 1.640625 -3.90625 1.640625 -3.09375 C 1.640625 -2.289062 1.804688 -1.664062 2.140625 -1.21875 Z M 1.3125 -5.625 C 1.4375 -5.78125 1.570312 -5.914062 1.71875 -6.03125 C 1.863281 -6.15625 2.015625 -6.253906 2.171875 -6.328125 C 2.335938 -6.410156 2.507812 -6.472656 2.6875 -6.515625 C 2.863281 -6.554688 3.039062 -6.578125 3.21875 -6.578125 C 4 -6.578125 4.644531 -6.28125 5.15625 -5.6875 C 5.65625 -5.101562 5.90625 -4.273438 5.90625 -3.203125 C 5.90625 -2.128906 5.648438 -1.285156 5.140625 -0.671875 C 4.617188 -0.046875 3.976562 0.265625 3.21875 0.265625 C 2.445312 0.265625 1.820312 -0.00390625 1.34375 -0.546875 C 0.8125 -1.148438 0.546875 -1.992188 0.546875 -3.078125 C 0.546875 -4.160156 0.800781 -5.007812 1.3125 -5.625 Z M 1.3125 -5.625 "/></g></g></g><g fill="#000000" fill-opacity="1"><g transform="translate(246.500621, 152.850218)"><g><path d="M 0.484375 -5.53125 C 0.484375 -5.601562 0.484375 -5.679688 0.484375 -5.765625 L 0.484375 -5.953125 L 0.65625 -5.984375 L 2.140625 -6.328125 L 3 -6.328125 L 3 0.234375 L 1.953125 0.234375 L 1.953125 -5.359375 L 0.78125 -5.09375 L 0.484375 -5.03125 L 0.484375 -5.3125 C 0.484375 -5.382812 0.484375 -5.457031 0.484375 -5.53125 Z M 0.484375 -5.53125 "/></g></g></g><g fill="#000000" fill-opacity="1"><g transform="translate(256.323215, 152.850218)"><g><path d="M 1.453125 -3.5 C 1.085938 -3.800781 0.90625 -4.207031 0.90625 -4.71875 C 0.90625 -5.25 1.070312 -5.65625 1.40625 -5.9375 C 1.75 -6.226562 2.226562 -6.375 2.84375 -6.375 C 3.519531 -6.375 4.015625 -6.222656 4.328125 -5.921875 C 4.628906 -5.628906 4.78125 -5.25 4.78125 -4.78125 C 4.78125 -4.644531 4.765625 -4.515625 4.734375 -4.390625 C 4.710938 -4.273438 4.679688 -4.160156 4.640625 -4.046875 C 4.597656 -3.929688 4.539062 -3.820312 4.46875 -3.71875 C 4.40625 -3.625 4.328125 -3.53125 4.234375 -3.4375 C 4.835938 -3.0625 5.140625 -2.445312 5.140625 -1.59375 C 5.140625 -1.1875 5.007812 -0.816406 4.75 -0.484375 C 4.351562 0.015625 3.71875 0.265625 2.84375 0.265625 C 1.957031 0.265625 1.320312 0.015625 0.9375 -0.484375 C 0.6875 -0.816406 0.5625 -1.160156 0.5625 -1.515625 C 0.5625 -2.066406 0.660156 -2.503906 0.859375 -2.828125 C 1.003906 -3.066406 1.203125 -3.289062 1.453125 -3.5 Z M 2.25 -3.109375 C 1.832031 -2.722656 1.625 -2.21875 1.625 -1.59375 C 1.625 -1.46875 1.640625 -1.351562 1.671875 -1.25 C 1.710938 -1.15625 1.769531 -1.070312 1.84375 -1 C 1.914062 -0.925781 2.015625 -0.863281 2.140625 -0.8125 C 2.328125 -0.726562 2.566406 -0.6875 2.859375 -0.6875 C 3.117188 -0.6875 3.332031 -0.71875 3.5 -0.78125 C 3.664062 -0.851562 3.800781 -0.945312 3.90625 -1.0625 C 3.957031 -1.144531 4 -1.234375 4.03125 -1.328125 C 4.0625 -1.421875 4.078125 -1.535156 4.078125 -1.671875 C 4.078125 -1.804688 4.0625 -1.925781 4.03125 -2.03125 C 4 -2.132812 3.960938 -2.222656 3.921875 -2.296875 C 3.859375 -2.390625 3.789062 -2.46875 3.71875 -2.53125 C 3.65625 -2.59375 3.582031 -2.648438 3.5 -2.703125 C 3.394531 -2.753906 3.289062 -2.796875 3.1875 -2.828125 C 3.09375 -2.867188 2.984375 -2.90625 2.859375 -2.9375 C 2.648438 -2.976562 2.445312 -3.035156 2.25 -3.109375 Z M 2.90625 -5.421875 C 2.5625 -5.421875 2.316406 -5.363281 2.171875 -5.25 C 2.035156 -5.144531 1.96875 -4.976562 1.96875 -4.75 C 1.96875 -4.613281 1.992188 -4.492188 2.046875 -4.390625 C 2.109375 -4.285156 2.207031 -4.191406 2.34375 -4.109375 C 2.476562 -4.023438 2.648438 -3.957031 2.859375 -3.90625 C 2.921875 -3.90625 2.976562 -3.894531 3.03125 -3.875 C 3.082031 -3.863281 3.132812 -3.847656 3.1875 -3.828125 C 3.25 -3.816406 3.304688 -3.800781 3.359375 -3.78125 C 3.429688 -3.875 3.488281 -3.96875 3.53125 -4.0625 C 3.570312 -4.15625 3.597656 -4.257812 3.609375 -4.375 L 3.625 -4.390625 L 3.625 -4.421875 C 3.644531 -4.484375 3.660156 -4.539062 3.671875 -4.59375 C 3.691406 -4.65625 3.703125 -4.707031 3.703125 -4.75 C 3.703125 -4.84375 3.695312 -4.921875 3.6875 -4.984375 C 3.644531 -5.085938 3.597656 -5.164062 3.546875 -5.21875 C 3.453125 -5.28125 3.351562 -5.328125 3.25 -5.359375 C 3.144531 -5.398438 3.03125 -5.421875 2.90625 -5.421875 Z M 2.90625 -5.421875 "/></g></g></g></svg>