<svg xmlns="http://www.w3.org/2000/svg" xmlns:xlink="http://www.w3.org/1999/xlink" width="500" zoomAndPan="magnify" viewBox="0 0 375 374.999991" height="500" preserveAspectRatio="xMidYMid meet" version="1.2"><defs/><g id="a5f29c34d4"><g style="fill:#000000;fill-opacity:1;"><g transform="translate(132.116624, 240.011818)"><path style="stroke:none" d="M 2.890625 -140.484375 L 56.28125 -140.484375 L 56.28125 -138.171875 C 49.851562 -138.171875 45.515625 -137.59375 43.265625 -136.4375 C 41.015625 -135.28125 40.914062 -132.519531 42.96875 -128.15625 L 92.125 -26.59375 L 127.1875 -126.609375 C 128.601562 -130.722656 128.601562 -133.644531 127.1875 -135.375 C 125.78125 -137.113281 122.054688 -137.984375 116.015625 -137.984375 L 116.015625 -140.484375 L 147.4375 -140.484375 L 147.4375 -137.984375 C 142.03125 -137.984375 138.109375 -137.210938 135.671875 -135.671875 C 133.234375 -134.128906 131.242188 -131.046875 129.703125 -126.421875 L 85.375 0 L 82.484375 2.3125 L 20.234375 -126.609375 C 18.179688 -131.109375 16.09375 -134.128906 13.96875 -135.671875 C 11.851562 -137.210938 8.160156 -137.984375 2.890625 -137.984375 Z M 2.890625 -140.484375 "/></g></g><g style="fill:#000000;fill-opacity:1;"><g transform="translate(54.855292, 267.573617)"><path style="stroke:none" d="M 12.359375 0 L 10.5 -8.515625 L 6.90625 0.703125 L 3.296875 -8.515625 L 1.4375 0 L 0.171875 0 L 2.96875 -12.765625 L 6.90625 -2.515625 L 10.828125 -12.765625 L 13.609375 0 Z M 12.359375 0 "/></g></g><g style="fill:#000000;fill-opacity:1;"><g transform="translate(73.728469, 267.573617)"><path style="stroke:none" d="M 3.25 -4.40625 L 7.609375 -4.40625 L 5.4375 -9.921875 Z M 10.6875 0 L 9.34375 0 L 8.0625 -3.25 L 2.796875 -3.25 L 1.515625 0 L 0.171875 0 L 5.4375 -12.796875 Z M 10.6875 0 "/></g></g><g style="fill:#000000;fill-opacity:1;"><g transform="translate(89.679875, 267.573617)"><path style="stroke:none" d="M 2.546875 0 L 1.328125 0 L 1.328125 -11.96875 L 2.546875 -11.96875 Z M 2.546875 0 "/></g></g><g style="fill:#000000;fill-opacity:1;"><g transform="translate(98.643685, 267.573617)"><path style="stroke:none" d="M 4.65625 -5.65625 C 2.207031 -6.21875 0.984375 -7.257812 0.984375 -8.78125 C 0.984375 -9.914062 1.378906 -10.765625 2.171875 -11.328125 C 2.953125 -11.878906 3.875 -12.15625 4.9375 -12.15625 C 7.269531 -12.15625 8.65625 -11.285156 9.09375 -9.546875 L 7.75 -9.546875 C 7.507812 -10.578125 6.570312 -11.09375 4.9375 -11.09375 C 3.78125 -11.09375 2.972656 -10.753906 2.515625 -10.078125 C 2.335938 -9.816406 2.25 -9.492188 2.25 -9.109375 C 2.25 -8.367188 2.648438 -7.796875 3.453125 -7.390625 C 3.828125 -7.191406 4.625 -6.9375 5.84375 -6.625 C 7.0625 -6.300781 7.945312 -5.945312 8.5 -5.5625 C 9.269531 -5.019531 9.65625 -4.265625 9.65625 -3.296875 C 9.65625 -2.085938 9.175781 -1.171875 8.21875 -0.546875 C 7.425781 -0.0234375 6.441406 0.234375 5.265625 0.234375 C 2.609375 0.234375 1.070312 -0.773438 0.65625 -2.796875 L 2.109375 -2.796875 C 2.335938 -1.523438 3.390625 -0.890625 5.265625 -0.890625 C 6.597656 -0.890625 7.53125 -1.257812 8.0625 -2 C 8.269531 -2.300781 8.375 -2.703125 8.375 -3.203125 C 8.375 -3.691406 8.179688 -4.097656 7.796875 -4.421875 C 7.242188 -4.867188 6.195312 -5.28125 4.65625 -5.65625 Z M 4.65625 -5.65625 "/></g></g><g style="fill:#000000;fill-opacity:1;"><g transform="translate(113.838248, 267.573617)"><path style="stroke:none" d="M 11.875 -6.015625 C 11.875 -7.367188 11.390625 -8.523438 10.421875 -9.484375 C 9.460938 -10.453125 8.300781 -10.9375 6.9375 -10.9375 C 5.582031 -10.9375 4.425781 -10.453125 3.46875 -9.484375 C 2.507812 -8.523438 2.03125 -7.367188 2.03125 -6.015625 C 2.03125 -4.660156 2.507812 -3.5 3.46875 -2.53125 C 4.425781 -1.570312 5.582031 -1.09375 6.9375 -1.09375 C 8.300781 -1.09375 9.460938 -1.570312 10.421875 -2.53125 C 11.390625 -3.5 11.875 -4.660156 11.875 -6.015625 Z M 13.09375 -6.015625 C 13.09375 -5.171875 12.9375 -4.375 12.625 -3.625 C 12.300781 -2.875 11.863281 -2.222656 11.3125 -1.671875 C 10.738281 -1.109375 10.078125 -0.671875 9.328125 -0.359375 C 8.578125 -0.0234375 7.78125 0.140625 6.9375 0.140625 C 6.09375 0.140625 5.300781 -0.0234375 4.5625 -0.359375 C 3.8125 -0.671875 3.160156 -1.109375 2.609375 -1.671875 C 2.046875 -2.222656 1.601562 -2.875 1.28125 -3.625 C 0.957031 -4.375 0.796875 -5.171875 0.796875 -6.015625 C 0.796875 -6.867188 0.957031 -7.671875 1.28125 -8.421875 C 1.601562 -9.171875 2.046875 -9.820312 2.609375 -10.375 C 3.160156 -10.925781 3.8125 -11.363281 4.5625 -11.6875 C 5.300781 -12.007812 6.09375 -12.171875 6.9375 -12.171875 C 7.78125 -12.171875 8.578125 -12.007812 9.328125 -11.6875 C 10.078125 -11.363281 10.738281 -10.925781 11.3125 -10.375 C 11.863281 -9.820312 12.300781 -9.171875 12.625 -8.421875 C 12.9375 -7.671875 13.09375 -6.867188 13.09375 -6.015625 Z M 13.09375 -6.015625 "/></g></g><g style="fill:#000000;fill-opacity:1;"><g transform="translate(132.817026, 267.573617)"><path style="stroke:none" d="M 2.546875 -8.828125 L 2.546875 0 L 1.328125 0 L 1.328125 -12.734375 L 8.046875 -3.171875 L 8.046875 -11.96875 L 9.28125 -11.96875 L 9.28125 0.734375 Z M 2.546875 -8.828125 "/></g></g><g style="fill:#000000;fill-opacity:1;"><g transform="translate(148.504425, 267.573617)"><path style="stroke:none" d=""/></g></g><g style="fill:#000000;fill-opacity:1;"><g transform="translate(158.348294, 267.573617)"><path style="stroke:none" d="M 5.625 0.71875 L 0.171875 -11.96875 L 1.515625 -11.96875 L 5.625 -2.328125 L 9.703125 -11.96875 L 11.046875 -11.96875 Z M 5.625 0.71875 "/></g></g><g style="fill:#000000;fill-opacity:1;"><g transform="translate(174.651718, 267.573617)"><path style="stroke:none" d="M 8.4375 0 L 1.328125 0 L 1.328125 -11.96875 L 8.4375 -11.96875 L 8.4375 -10.828125 L 2.546875 -10.828125 L 2.546875 -6.5625 L 8.265625 -6.5625 L 8.265625 -5.40625 L 2.546875 -5.40625 L 2.546875 -1.140625 L 8.4375 -1.140625 Z M 7.390625 -15.71875 L 5.453125 -13.203125 L 4.46875 -13.203125 L 5.875 -15.71875 Z M 7.390625 -15.71875 "/></g></g><g style="fill:#000000;fill-opacity:1;"><g transform="translate(189.494263, 267.573617)"><path style="stroke:none" d="M 2.546875 -5.921875 L 5.328125 -5.921875 C 6.023438 -5.921875 6.597656 -6.15625 7.046875 -6.625 C 7.503906 -7.101562 7.734375 -7.695312 7.734375 -8.40625 C 7.734375 -9.09375 7.515625 -9.664062 7.078125 -10.125 C 6.640625 -10.570312 6.054688 -10.796875 5.328125 -10.796875 L 2.546875 -10.796875 Z M 8.96875 -8.359375 C 8.96875 -7.316406 8.597656 -6.453125 7.859375 -5.765625 C 7.203125 -5.148438 6.40625 -4.8125 5.46875 -4.75 L 9.15625 0 L 7.5 0 L 4 -4.734375 L 2.546875 -4.734375 L 2.546875 0 L 1.328125 0 L 1.328125 -11.96875 L 5.15625 -11.96875 C 6.226562 -11.96875 7.128906 -11.632812 7.859375 -10.96875 C 8.597656 -10.269531 8.96875 -9.398438 8.96875 -8.359375 Z M 8.96875 -8.359375 "/></g></g><g style="fill:#000000;fill-opacity:1;"><g transform="translate(204.160798, 267.573617)"><path style="stroke:none" d="M 2.546875 0 L 1.328125 0 L 1.328125 -11.96875 L 2.546875 -11.96875 Z M 2.546875 0 "/></g></g><g style="fill:#000000;fill-opacity:1;"><g transform="translate(213.124608, 267.573617)"><path style="stroke:none" d="M 0.359375 -10.859375 L 0.359375 -12.015625 L 7.390625 -12.015625 L 7.390625 -10.859375 L 4.484375 -10.859375 L 4.484375 -0.03125 L 3.25 -0.03125 L 3.25 -10.859375 Z M 0.359375 -10.859375 "/></g></g><g style="fill:#000000;fill-opacity:1;"><g transform="translate(225.960645, 267.573617)"><path style="stroke:none" d="M 8.4375 0 L 1.328125 0 L 1.328125 -11.96875 L 8.4375 -11.96875 L 8.4375 -10.828125 L 2.546875 -10.828125 L 2.546875 -6.5625 L 8.265625 -6.5625 L 8.265625 -5.40625 L 2.546875 -5.40625 L 2.546875 -1.140625 L 8.4375 -1.140625 Z M 7.390625 -15.71875 L 5.453125 -13.203125 L 4.46875 -13.203125 L 5.875 -15.71875 Z M 7.390625 -15.71875 "/></g></g><g style="fill:#000000;fill-opacity:1;"><g transform="translate(240.803189, 267.573617)"><path style="stroke:none" d=""/></g></g><g style="fill:#000000;fill-opacity:1;"><g transform="translate(250.647058, 267.573617)"><path style="stroke:none" d="M 2.546875 0 L 1.328125 0 L 1.328125 -11.96875 L 2.546875 -11.96875 L 2.546875 -6.578125 L 8 -6.578125 L 8 -11.96875 L 9.234375 -11.96875 L 9.234375 0 L 8 0 L 8 -5.359375 L 2.546875 -5.359375 Z M 2.546875 0 "/></g></g><g style="fill:#000000;fill-opacity:1;"><g transform="translate(266.28165, 267.573617)"><path style="stroke:none" d="M 11.875 -6.015625 C 11.875 -7.367188 11.390625 -8.523438 10.421875 -9.484375 C 9.460938 -10.453125 8.300781 -10.9375 6.9375 -10.9375 C 5.582031 -10.9375 4.425781 -10.453125 3.46875 -9.484375 C 2.507812 -8.523438 2.03125 -7.367188 2.03125 -6.015625 C 2.03125 -4.660156 2.507812 -3.5 3.46875 -2.53125 C 4.425781 -1.570312 5.582031 -1.09375 6.9375 -1.09375 C 8.300781 -1.09375 9.460938 -1.570312 10.421875 -2.53125 C 11.390625 -3.5 11.875 -4.660156 11.875 -6.015625 Z M 13.09375 -6.015625 C 13.09375 -5.171875 12.9375 -4.375 12.625 -3.625 C 12.300781 -2.875 11.863281 -2.222656 11.3125 -1.671875 C 10.738281 -1.109375 10.078125 -0.671875 9.328125 -0.359375 C 8.578125 -0.0234375 7.78125 0.140625 6.9375 0.140625 C 6.09375 0.140625 5.300781 -0.0234375 4.5625 -0.359375 C 3.8125 -0.671875 3.160156 -1.109375 2.609375 -1.671875 C 2.046875 -2.222656 1.601562 -2.875 1.28125 -3.625 C 0.957031 -4.375 0.796875 -5.171875 0.796875 -6.015625 C 0.796875 -6.867188 0.957031 -7.671875 1.28125 -8.421875 C 1.601562 -9.171875 2.046875 -9.820312 2.609375 -10.375 C 3.160156 -10.925781 3.8125 -11.363281 4.5625 -11.6875 C 5.300781 -12.007812 6.09375 -12.171875 6.9375 -12.171875 C 7.78125 -12.171875 8.578125 -12.007812 9.328125 -11.6875 C 10.078125 -11.363281 10.738281 -10.925781 11.3125 -10.375 C 11.863281 -9.820312 12.300781 -9.171875 12.625 -8.421875 C 12.9375 -7.671875 13.09375 -6.867188 13.09375 -6.015625 Z M 13.09375 -6.015625 "/></g></g><g style="fill:#000000;fill-opacity:1;"><g transform="translate(285.260428, 267.573617)"><path style="stroke:none" d="M 0.359375 -10.859375 L 0.359375 -12.015625 L 7.390625 -12.015625 L 7.390625 -10.859375 L 4.484375 -10.859375 L 4.484375 -0.03125 L 3.25 -0.03125 L 3.25 -10.859375 Z M 0.359375 -10.859375 "/></g></g><g style="fill:#000000;fill-opacity:1;"><g transform="translate(298.096478, 267.573617)"><path style="stroke:none" d="M 8.4375 0 L 1.328125 0 L 1.328125 -11.96875 L 8.4375 -11.96875 L 8.4375 -10.828125 L 2.546875 -10.828125 L 2.546875 -6.5625 L 8.265625 -6.5625 L 8.265625 -5.40625 L 2.546875 -5.40625 L 2.546875 -1.140625 L 8.4375 -1.140625 Z M 8.4375 0 "/></g></g><g style="fill:#000000;fill-opacity:1;"><g transform="translate(312.939008, 267.573617)"><path style="stroke:none" d="M 2.546875 -1.234375 L 6.828125 -1.234375 L 6.828125 0 L 1.328125 0 L 1.328125 -11.96875 L 2.546875 -11.96875 Z M 2.546875 -1.234375 "/></g></g><g style="fill:#000000;fill-opacity:1;"><g transform="translate(87.589664, 241.035926)"><path style="stroke:none" d="M 4.828125 -138.265625 L 4.828125 -140.78125 L 40.359375 -140.78125 L 83.609375 -30.125 L 124.9375 -140.78125 L 159.890625 -140.78125 L 159.890625 -138.265625 C 155.390625 -138.265625 152.007812 -137.8125 149.75 -136.90625 C 147.5 -136.007812 146.3125 -133.179688 146.1875 -128.421875 L 146.1875 -13.125 C 146.1875 -7.976562 147.3125 -4.921875 149.5625 -3.953125 C 151.8125 -2.992188 155.253906 -2.515625 159.890625 -2.515625 L 159.890625 0 L 111.234375 0 L 111.234375 -2.515625 C 115.867188 -2.515625 119.3125 -2.992188 121.5625 -3.953125 C 123.8125 -4.921875 124.9375 -7.976562 124.9375 -13.125 L 124.9375 -133.25 L 75.125 0 L 72.421875 0 L 23.953125 -125.90625 C 23.816406 -126.164062 23.71875 -126.421875 23.65625 -126.671875 C 23.59375 -126.929688 23.492188 -127.128906 23.359375 -127.265625 L 23.359375 -12.546875 C 23.492188 -7.785156 24.6875 -4.921875 26.9375 -3.953125 C 29.1875 -2.992188 32.566406 -2.515625 37.078125 -2.515625 L 37.078125 0 L 7.140625 0 L 7.140625 -2.515625 C 11.773438 -2.515625 15.21875 -2.992188 17.46875 -3.953125 C 19.726562 -4.921875 20.859375 -7.976562 20.859375 -13.125 L 20.859375 -132.28125 C 19.179688 -134.851562 17.148438 -136.492188 14.765625 -137.203125 C 12.390625 -137.910156 9.078125 -138.265625 4.828125 -138.265625 Z M 4.828125 -138.265625 "/></g></g></g></svg>